{"glyphs":{"0":{"ha":1058,"x_min":0,"x_max":0,"o":"m 529 987 b 92 485 261 986 92 843 b 529 -17 92 127 261 -17 b 966 485 797 -17 966 127 b 529 987 966 843 797 986 z m 529 15 b 302 485 383 15 302 144 b 529 954 302 826 383 954 b 755 485 674 954 755 826 b 529 15 755 144 674 15 z "},"1":{"ha":514,"x_min":0,"x_max":0,"o":"m 60 812 l 79 776 l 208 844 l 208 -1 l 402 -1 l 402 970 l 362 970 z "},"2":{"ha":993,"x_min":0,"x_max":0,"o":"m 420 988 b 79 855 420 988 160 988 l 103 833 b 420 955 193 964 420 955 b 694 719 549 955 694 931 b 565 523 694 719 694 580 b 201 352 382 442 278 414 b 79 82 131 296 79 204 b 79 0 79 61 79 2 l 855 0 l 855 188 l 661 188 l 584 33 l 270 33 b 298 164 269 68 271 124 b 646 352 368 267 542 306 b 872 539 763 403 840 465 b 905 703 913 632 905 703 b 420 988 905 915 658 988 z "},"3":{"ha":994,"x_min":0,"x_max":0,"o":"m 661 499 b 880 726 787 529 880 601 b 499 970 880 901 706 970 l 75 970 l 75 782 l 269 782 l 346 938 l 418 938 b 670 726 530 938 670 892 b 418 514 670 559 531 514 l 216 514 l 216 481 l 419 481 b 694 253 532 481 694 430 b 416 16 694 41 545 16 b 85 75 416 16 238 10 l 75 45 b 416 -17 249 -26 416 -17 b 904 253 653 -17 904 32 b 661 499 904 392 799 469 z "},"4":{"ha":992,"x_min":0,"x_max":0,"o":"m 761 956 l 567 988 l 57 227 l 57 195 l 567 195 l 567 1 l 761 1 l 761 195 l 939 195 l 939 227 l 761 227 z m 567 227 l 97 227 l 567 923 z "},"5":{"ha":1006,"x_min":0,"x_max":0,"o":"m 425 611 b 279 598 366 611 279 598 l 279 938 l 598 938 l 674 783 l 869 783 l 869 970 l 93 970 l 93 513 b 425 578 246 578 425 578 b 709 297 570 578 709 510 b 425 16 709 84 570 16 b 103 75 425 16 256 11 l 93 45 b 425 -17 267 -26 425 -17 b 919 297 693 -17 919 73 b 919 297 919 297 919 297 b 919 297 919 297 919 297 b 425 611 919 521 700 611 z "},"6":{"ha":1006,"x_min":0,"x_max":0,"o":"m 521 -17 b 930 315 704 -17 930 78 b 521 647 930 551 704 647 b 329 611 458 647 391 635 b 752 954 413 847 635 954 l 752 987 b 85 388 606 987 85 881 b 521 -17 85 23 360 -17 z m 320 585 b 521 625 382 610 441 625 b 719 315 635 625 719 540 b 521 15 719 89 620 16 b 295 388 382 15 295 100 b 320 585 295 485 314 566 z "},"7":{"ha":893,"x_min":0,"x_max":0,"o":"m 57 972 l 57 786 l 251 786 l 328 939 l 623 939 l 227 0 l 436 0 l 844 972 z "},"8":{"ha":1044,"x_min":0,"x_max":0,"o":"m 737 516 b 908 736 843 553 908 623 b 495 987 908 915 729 986 b 123 694 495 987 123 1003 b 274 473 123 581 187 516 b 90 242 160 437 90 363 b 535 -17 90 57 301 -17 b 956 272 535 -17 956 -34 b 737 516 956 405 858 470 z m 519 954 b 724 736 647 954 724 906 b 654 545 724 643 698 581 b 310 771 488 597 314 635 b 519 954 304 958 519 954 z m 762 199 b 503 15 757 17 503 15 b 274 242 376 15 274 66 b 348 442 274 341 301 405 b 762 199 533 377 766 361 z "},"9":{"ha":1006,"x_min":0,"x_max":0,"o":"m 484 987 b 75 655 301 987 75 892 b 484 323 75 418 301 323 b 676 358 547 323 614 334 b 253 15 592 122 369 15 l 253 -17 b 920 582 399 -17 920 88 b 484 987 920 946 645 987 z m 685 384 b 484 344 623 359 564 344 b 285 655 370 344 285 429 b 484 954 285 880 385 954 b 710 582 623 954 710 869 b 685 384 710 485 691 404 z "},"\u0000":{"ha":0,"x_min":0,"x_max":0,"o":""},"\n":{"ha":0,"x_min":0,"x_max":0,"o":""},"\r":{"ha":0,"x_min":0,"x_max":0,"o":""}," ":{"ha":528,"x_min":0,"x_max":0,"o":""},"!":{"ha":414,"x_min":0,"x_max":0,"o":"m 304 0 l 304 227 l 109 227 l 109 0 z m 101 972 l 101 746 l 126 325 l 288 325 l 312 746 l 312 972 z "},"\"":{"ha":619,"x_min":0,"x_max":0,"o":"m 68 775 l 92 581 l 238 581 l 262 775 l 262 970 l 68 970 z m 357 970 l 357 775 l 381 581 l 527 581 l 551 775 l 551 970 z "},"#":{"ha":875,"x_min":0,"x_max":0,"o":"m 802 600 l 802 632 l 648 632 l 648 973 l 534 973 l 534 632 l 340 632 l 340 973 l 226 973 l 226 632 l 72 632 l 72 600 l 226 600 l 226 373 l 72 373 l 72 340 l 226 341 l 226 0 l 340 0 l 340 341 l 534 341 l 533 0 l 647 0 l 648 341 l 802 340 l 802 373 l 648 373 l 648 600 z m 534 373 l 340 373 l 340 600 l 534 600 z "},"$":{"ha":1079,"x_min":0,"x_max":0,"o":"m 992 277 b 563 570 992 467 760 515 l 563 940 b 669 938 625 940 669 938 l 743 781 l 951 777 l 951 964 b 563 972 951 964 685 971 l 563 1094 l 522 1094 l 522 972 b 89 688 351 971 89 945 b 522 392 89 483 326 443 l 522 17 b 393 19 448 17 393 19 l 318 176 l 110 180 l 110 -7 b 522 -15 110 -7 417 -15 l 522 -136 l 563 -136 l 563 -15 b 992 277 736 -10 992 32 z m 291 763 b 522 940 291 915 452 938 l 522 581 b 291 763 395 619 291 665 z m 563 19 l 563 381 b 781 206 684 347 781 304 b 563 19 781 68 643 28 z "},"%":{"ha":1164,"x_min":0,"x_max":0,"o":"m 514 729 b 294 980 514 908 429 980 b 75 729 160 980 75 908 b 294 477 75 549 160 477 b 514 729 429 477 514 549 z m 181 729 b 294 964 181 900 221 964 b 408 729 367 964 408 900 b 294 493 408 558 367 493 b 181 729 221 493 181 558 z m 869 480 b 650 229 735 480 650 408 b 869 -23 650 49 735 -23 b 1088 229 1003 -23 1088 49 b 869 480 1088 408 1003 480 z m 869 -7 b 755 229 796 -7 755 58 b 869 464 755 400 796 464 b 983 229 942 464 983 400 b 869 -7 983 58 942 -7 z m 946 957 l 913 980 l 217 1 l 250 -23 z "},"&":{"ha":1179,"x_min":0,"x_max":0,"o":"m 793 977 b 633 989 700 989 633 989 b 121 730 365 989 121 934 b 332 504 121 606 206 535 b 89 260 194 475 89 398 b 583 -15 89 49 315 -15 b 987 58 583 -15 785 -15 l 987 487 l 1117 487 l 1117 519 l 987 519 l 987 713 l 793 713 l 793 519 l 575 519 b 332 730 462 519 332 564 b 633 957 332 894 487 957 b 788 949 633 957 699 959 z m 793 35 b 583 17 674 15 583 17 b 299 260 437 17 299 90 b 574 487 299 436 461 487 l 793 487 z "},"'":{"ha":331,"x_min":0,"x_max":0,"o":"m 68 970 l 68 775 l 92 581 l 238 581 l 262 775 l 262 970 z "},"(":{"ha":372,"x_min":0,"x_max":0,"o":"m 210 478 b 364 1069 210 852 275 1004 l 348 1093 b 97 478 205 988 97 834 b 348 -137 97 122 205 -32 l 364 -113 b 211 478 275 -48 211 104 z "},")":{"ha":372,"x_min":0,"x_max":0,"o":"m 23 1093 l 7 1069 b 161 478 96 1004 161 852 b 7 -113 161 104 96 -48 l 23 -137 b 274 478 166 -32 274 122 b 23 1093 274 834 166 988 z "},"*":{"ha":782,"x_min":0,"x_max":0,"o":"m 442 701 l 510 780 l 598 932 l 513 981 l 426 829 l 391 728 l 356 829 l 268 981 l 184 932 l 272 780 l 339 701 l 237 719 l 61 719 l 61 622 l 237 622 l 340 642 l 272 562 l 184 410 l 268 361 l 356 513 l 391 611 l 426 513 l 513 361 l 598 410 l 510 562 l 442 641 l 545 622 l 720 622 l 720 719 l 545 719 z "},"+":{"ha":954,"x_min":0,"x_max":0,"o":"m 525 527 l 525 899 l 428 899 l 428 527 l 56 527 l 56 430 l 428 430 l 428 57 l 525 57 l 525 430 l 897 430 l 897 527 z "},",":{"ha":300,"x_min":0,"x_max":0,"o":"m 53 16 l 210 -17 b 82 -164 193 -106 136 -146 l 90 -194 b 247 15 181 -163 247 -88 l 247 225 l 53 225 z "},"-":{"ha":913,"x_min":0,"x_max":0,"o":"m 876 430 l 876 527 l 35 527 l 35 430 z "},".":{"ha":300,"x_min":0,"x_max":0,"o":"m 247 0 l 247 227 l 53 227 l 53 0 z "},"/":{"ha":493,"x_min":0,"x_max":0,"o":"m 334 964 l 60 -7 l 157 -7 l 431 964 z "},":":{"ha":344,"x_min":0,"x_max":0,"o":"m 269 746 l 269 972 l 75 972 l 75 746 z m 269 0 l 269 227 l 75 227 l 75 0 z "},";":{"ha":347,"x_min":0,"x_max":0,"o":"m 271 744 l 271 971 l 76 971 l 76 744 z m 76 16 l 233 -17 b 105 -164 216 -105 159 -146 l 114 -194 b 271 15 204 -163 271 -88 l 271 226 l 76 226 l 76 16 z "},"<":{"ha":886,"x_min":0,"x_max":0,"o":"m 816 835 l 53 500 l 53 455 l 816 122 l 816 227 l 207 478 l 816 729 z "},"=":{"ha":940,"x_min":0,"x_max":0,"o":"m 890 608 l 890 705 l 49 705 l 49 608 z m 890 252 l 890 349 l 49 349 l 49 252 z "},">":{"ha":886,"x_min":0,"x_max":0,"o":"m 69 835 l 69 729 l 679 478 l 70 228 l 70 122 l 833 455 l 833 500 z "},"?":{"ha":886,"x_min":0,"x_max":0,"o":"m 444 0 l 444 227 l 250 227 l 250 0 z m 388 989 b 47 856 388 989 128 989 l 71 834 b 388 956 160 964 388 956 b 603 786 517 956 603 899 b 485 616 603 721 582 665 b 250 325 321 534 250 471 l 444 325 b 817 746 444 495 817 462 b 388 989 817 919 625 989 z "},"@":{"ha":1301,"x_min":0,"x_max":0,"o":"m 690 989 b 86 425 379 989 108 736 b 610 -139 64 113 298 -139 b 889 -68 709 -139 805 -114 l 854 5 b 616 -59 784 -36 703 -59 b 191 425 349 -59 172 158 b 685 908 210 692 418 908 b 1109 425 952 908 1129 691 b 948 110 1093 263 1008 110 b 876 320 868 110 876 320 l 876 537 l 876 537 b 661 690 870 699 661 690 l 425 690 l 425 585 l 534 585 l 578 672 l 625 672 b 762 573 625 672 766 675 b 369 300 757 430 369 485 b 586 140 369 134 586 140 l 586 141 b 803 188 649 141 735 153 b 948 94 825 137 868 94 b 1214 425 1190 94 1214 425 b 690 989 1236 736 1002 989 z m 626 159 b 487 260 626 159 490 161 b 779 408 484 360 663 359 l 779 336 b 798 203 779 303 781 250 b 626 159 725 155 658 159 z "},"A":{"ha":974,"x_min":0,"x_max":0,"o":"m 607 356 l 739 0 l 946 0 l 590 971 l 383 971 l 26 0 l 233 0 l 288 149 l 166 278 l 194 356 z m 400 917 l 595 388 l 206 388 z "},"B":{"ha":1089,"x_min":0,"x_max":0,"o":"m 772 503 b 990 728 898 533 990 604 b 610 971 990 901 817 971 l 262 971 l 108 894 l 109 0 l 626 0 b 1015 259 833 0 1015 74 b 772 503 1015 397 910 473 z m 781 728 b 529 518 781 563 642 518 l 303 518 l 303 938 l 528 938 b 781 728 641 938 781 893 z m 529 32 l 303 32 l 303 485 l 530 485 b 805 259 643 485 805 435 b 529 32 805 82 642 32 z "},"C":{"ha":1144,"x_min":0,"x_max":0,"o":"m 617 946 l 749 943 l 824 787 l 1032 782 l 1032 970 l 617 978 b 112 481 348 978 112 836 b 617 -15 112 127 348 -15 b 1031 57 617 -15 824 -25 l 1018 87 b 617 18 839 12 617 18 b 324 481 471 18 324 144 b 617 946 324 819 471 946 z "},"D":{"ha":1092,"x_min":0,"x_max":0,"o":"m 521 971 l 262 971 l 108 890 l 108 0 l 521 0 b 1023 485 789 0 1023 138 b 521 971 1023 832 789 971 z m 521 32 l 303 32 l 303 938 l 521 938 b 813 485 667 938 813 816 b 521 32 813 155 667 32 z "},"E":{"ha":917,"x_min":0,"x_max":0,"o":"m 262 971 l 108 890 l 108 0 l 853 0 l 853 186 l 659 186 l 582 32 l 303 32 l 303 485 l 691 485 l 691 518 l 303 518 l 303 938 l 582 938 l 659 785 l 853 785 l 853 971 z "},"F":{"ha":885,"x_min":0,"x_max":0,"o":"m 262 971 l 108 890 l 108 0 l 303 0 l 303 485 l 691 485 l 691 518 l 303 518 l 303 938 l 582 938 l 659 785 l 853 785 l 853 971 z "},"G":{"ha":1079,"x_min":0,"x_max":0,"o":"m 69 473 b 566 -15 69 125 301 -15 b 988 58 741 -15 870 14 l 988 457 l 557 457 l 557 424 l 793 424 l 793 43 b 644 32 749 36 701 32 b 278 473 322 32 278 321 b 567 945 278 805 423 945 l 706 943 l 780 786 l 988 782 l 988 969 l 567 977 b 69 473 302 977 69 832 z "},"H":{"ha":1097,"x_min":0,"x_max":0,"o":"m 791 971 l 791 518 l 305 518 l 305 971 l 111 971 l 111 0 l 305 0 l 305 485 l 791 485 l 791 0 l 985 0 l 985 971 z "},"I":{"ha":417,"x_min":0,"x_max":0,"o":"m 305 0 l 305 971 l 111 971 l 111 0 z "},"J":{"ha":417,"x_min":0,"x_max":0,"o":"m 111 971 l 111 56 b 46 -162 111 -41 103 -162 l 46 -195 b 305 32 184 -195 305 -107 l 305 971 z "},"K":{"ha":1011,"x_min":0,"x_max":0,"o":"m 550 542 l 972 971 l 699 971 l 622 892 l 678 730 l 305 349 l 305 971 l 111 971 l 111 0 l 305 0 l 305 293 l 413 402 l 736 0 l 985 0 z "},"L":{"ha":885,"x_min":0,"x_max":0,"o":"m 853 0 l 853 186 l 659 186 l 582 32 l 303 32 l 303 971 l 108 971 l 108 81 l 262 0 z "},"M":{"ha":1251,"x_min":0,"x_max":0,"o":"m 942 971 l 670 258 l 327 971 l 111 971 l 111 0 l 305 0 l 305 194 l 152 271 l 152 884 l 569 -8 l 569 -8 l 612 -8 l 945 865 l 945 0 l 1139 0 l 1139 971 z "},"N":{"ha":1126,"x_min":0,"x_max":0,"o":"m 822 968 l 822 774 l 975 697 l 975 86 l 351 968 l 111 968 l 111 -3 l 305 -3 l 305 191 l 152 268 l 152 912 l 800 -8 l 1016 29 l 1016 968 z "},"O":{"ha":1143,"x_min":0,"x_max":0,"o":"m 571 987 b 69 485 304 987 69 843 b 571 -17 69 127 303 -17 b 1073 485 839 -17 1073 127 b 571 987 1073 843 839 987 z m 571 16 b 280 485 426 16 280 144 b 571 955 280 826 426 954 b 863 485 717 954 863 826 b 571 16 863 144 717 16 z "},"P":{"ha":1054,"x_min":0,"x_max":0,"o":"m 617 971 l 261 971 l 108 890 l 108 0 l 303 0 l 303 388 l 617 388 b 1006 679 824 388 1006 471 b 617 971 1006 888 824 971 z m 536 420 l 303 420 l 303 938 l 536 938 b 796 679 649 938 796 878 b 536 420 796 481 649 420 z "},"Q":{"ha":1143,"x_min":0,"x_max":0,"o":"m 1073 485 b 571 987 1073 843 839 987 b 69 485 304 987 69 843 b 571 -17 69 127 303 -17 b 573 -17 572 -17 572 -17 l 473 -67 l 594 -195 l 861 -195 l 684 -8 b 1073 485 902 29 1073 179 z m 571 16 b 280 485 426 16 280 144 b 571 955 280 826 426 954 b 863 485 717 954 863 826 b 571 16 863 144 717 16 z "},"R":{"ha":1092,"x_min":0,"x_max":0,"o":"m 1042 0 l 722 396 b 1006 679 882 421 1006 508 b 617 971 1006 888 824 971 l 262 971 l 108 890 l 108 0 l 303 0 l 303 388 l 480 388 l 792 0 z m 303 938 l 536 938 b 796 679 649 938 796 878 b 536 420 796 481 649 420 l 303 420 z "},"S":{"ha":1028,"x_min":0,"x_max":0,"o":"m 261 767 b 506 945 261 930 445 945 b 638 943 581 945 638 943 l 713 786 l 921 782 l 921 969 b 506 977 921 969 610 977 b 58 692 336 977 58 956 b 751 210 58 342 751 473 b 510 17 751 15 510 17 b 105 86 510 17 276 2 l 92 56 b 510 -16 254 -8 377 -16 b 961 282 510 -16 961 -16 b 261 767 961 611 261 513 z "},"T":{"ha":1119,"x_min":0,"x_max":0,"o":"m 29 971 l 29 785 l 223 785 l 300 938 l 462 938 l 462 0 l 656 0 l 656 938 l 818 938 l 895 785 l 1089 785 l 1089 971 z "},"U":{"ha":1029,"x_min":0,"x_max":0,"o":"m 931 971 l 737 971 l 737 776 l 890 700 l 890 350 b 591 24 890 155 739 24 b 292 350 381 24 292 155 l 292 971 l 97 971 l 97 358 b 515 -17 97 220 161 -17 b 931 358 865 -17 931 220 z "},"V":{"ha":971,"x_min":0,"x_max":0,"o":"m 945 971 l 738 971 l 683 822 l 803 694 l 568 55 l 232 971 l 25 971 l 381 0 l 588 0 z "},"W":{"ha":1454,"x_min":0,"x_max":0,"o":"m 1221 972 l 1169 820 l 1289 697 l 1291 695 l 1069 58 l 752 972 l 752 972 l 752 972 l 546 972 l 706 511 l 549 58 l 232 972 l 26 972 l 364 0 l 569 0 l 569 0 l 727 453 l 727 453 l 884 0 l 1089 0 l 1427 972 z "},"X":{"ha":972,"x_min":0,"x_max":0,"o":"m 588 519 l 943 972 l 696 972 l 621 876 l 695 721 l 564 553 l 277 972 l 42 972 l 42 972 l 390 464 l 25 1 l 273 1 l 348 96 l 275 252 l 413 430 l 708 1 l 943 1 z "},"Y":{"ha":949,"x_min":0,"x_max":0,"o":"m 712 972 l 641 839 l 740 699 l 558 359 l 237 971 l 17 971 l 378 284 l 378 0 l 572 0 l 572 298 l 932 972 z "},"Z":{"ha":943,"x_min":0,"x_max":0,"o":"m 620 32 l 290 32 l 900 971 l 82 971 l 82 785 l 276 785 l 353 938 l 647 938 l 38 0 l 891 0 l 891 186 l 697 186 z "},"[":{"ha":319,"x_min":0,"x_max":0,"o":"m 313 1061 l 313 1093 l 111 1093 l 111 -137 l 313 -137 l 313 -105 l 208 -105 l 208 1061 z "},"\\":{"ha":493,"x_min":0,"x_max":0,"o":"m 158 964 l 61 964 l 335 -7 l 432 -7 z "},"]":{"ha":319,"x_min":0,"x_max":0,"o":"m 6 1093 l 6 1061 l 111 1061 l 111 -105 l 6 -105 l 6 -137 l 208 -137 l 208 1093 z "},"^":{"ha":669,"x_min":0,"x_max":0,"o":"m 357 952 l 312 952 l 50 354 l 151 354 l 335 799 l 517 354 l 615 354 l 620 350 z "},"_":{"ha":971,"x_min":0,"x_max":0,"o":"m 859 -168 l 859 -136 l 111 -136 l 111 -168 z "},"`":{"ha":457,"x_min":0,"x_max":0,"o":"m 234 1208 l 111 1208 l 252 1039 l 345 1039 z "},"a":{"ha":976,"x_min":0,"x_max":0,"o":"m 609 356 l 741 0 l 948 0 l 591 971 l 384 971 l 28 0 l 235 0 l 289 149 l 167 278 l 195 356 z m 401 917 l 597 388 l 207 388 z "},"b":{"ha":1092,"x_min":0,"x_max":0,"o":"m 773 503 b 992 728 899 533 992 604 b 611 971 992 901 818 971 l 264 971 l 110 894 l 111 0 l 628 0 b 1016 259 835 0 1016 74 b 773 503 1016 397 911 473 z m 782 728 b 531 518 782 563 643 518 l 304 518 l 304 938 l 530 938 b 782 728 642 938 782 893 z m 531 32 l 304 32 l 304 485 l 531 485 b 807 259 644 485 807 435 b 531 32 807 82 643 32 z "},"c":{"ha":1144,"x_min":0,"x_max":0,"o":"m 617 946 l 749 943 l 824 787 l 1032 782 l 1032 970 l 617 978 b 112 481 348 978 112 836 b 617 -15 112 127 348 -15 b 1031 57 617 -15 824 -25 l 1018 87 b 617 18 839 12 617 18 b 324 481 471 18 324 144 b 617 946 324 819 471 946 z "},"d":{"ha":1094,"x_min":0,"x_max":0,"o":"m 522 971 l 263 971 l 110 890 l 110 0 l 522 0 b 1024 485 790 0 1024 138 b 522 971 1024 832 790 971 z m 522 32 l 304 32 l 304 938 l 522 938 b 814 485 668 938 814 816 b 522 32 814 155 668 32 z "},"e":{"ha":919,"x_min":0,"x_max":0,"o":"m 263 971 l 110 890 l 110 0 l 854 0 l 854 186 l 660 186 l 583 32 l 304 32 l 304 485 l 692 485 l 692 518 l 304 518 l 304 938 l 583 938 l 660 785 l 854 785 l 854 971 z "},"f":{"ha":888,"x_min":0,"x_max":0,"o":"m 263 971 l 110 890 l 110 0 l 304 0 l 304 485 l 692 485 l 692 518 l 304 518 l 304 938 l 583 938 l 660 785 l 854 785 l 854 971 z "},"g":{"ha":1082,"x_min":0,"x_max":0,"o":"m 71 474 b 567 -15 71 125 302 -15 b 990 59 742 -15 872 15 l 990 457 l 559 457 l 559 425 l 795 425 l 795 44 b 645 33 750 37 702 33 b 279 474 323 33 279 322 b 568 946 279 806 424 945 l 707 943 l 782 787 l 990 782 l 990 969 l 568 978 b 71 474 303 977 71 833 z "},"h":{"ha":1100,"x_min":0,"x_max":0,"o":"m 792 971 l 792 518 l 307 518 l 307 971 l 113 971 l 113 0 l 307 0 l 307 485 l 792 485 l 792 0 l 987 0 l 987 971 z "},"i":{"ha":419,"x_min":0,"x_max":0,"o":"m 307 0 l 307 971 l 113 971 l 113 0 z "},"j":{"ha":419,"x_min":0,"x_max":0,"o":"m 112 971 l 112 56 b 47 -162 112 -41 104 -162 l 47 -195 b 306 32 185 -195 306 -107 l 306 971 z "},"k":{"ha":1014,"x_min":0,"x_max":0,"o":"m 552 542 l 974 971 l 701 971 l 623 892 l 679 730 l 307 349 l 307 971 l 112 971 l 112 0 l 307 0 l 307 293 l 415 402 l 738 0 l 987 0 z "},"l":{"ha":886,"x_min":0,"x_max":0,"o":"m 854 0 l 854 186 l 660 186 l 583 32 l 304 32 l 304 971 l 110 971 l 110 81 l 263 0 z "},"m":{"ha":1254,"x_min":0,"x_max":0,"o":"m 943 971 l 672 258 l 328 971 l 112 971 l 112 0 l 307 0 l 307 194 l 153 271 l 153 884 l 570 -8 l 570 -8 l 614 -8 l 946 865 l 946 0 l 1140 0 l 1140 971 z "},"n":{"ha":1129,"x_min":0,"x_max":0,"o":"m 1017 968 l 823 968 l 823 774 l 977 697 l 977 86 l 353 968 l 113 968 l 113 -3 l 307 -3 l 307 191 l 153 268 l 153 912 l 802 -8 l 1017 29 z "},"o":{"ha":1146,"x_min":0,"x_max":0,"o":"m 573 987 b 71 485 305 987 71 843 b 573 -17 71 127 305 -17 b 1074 485 841 -17 1074 127 b 573 987 1074 843 840 987 z m 573 16 b 281 485 427 16 281 144 b 573 955 281 826 427 954 b 864 485 718 954 864 826 b 573 16 864 144 718 16 z "},"p":{"ha":1057,"x_min":0,"x_max":0,"o":"m 618 971 l 263 971 l 110 890 l 110 0 l 304 0 l 304 388 l 618 388 b 1007 679 825 388 1007 471 b 618 971 1007 888 825 971 z m 538 420 l 304 420 l 304 938 l 538 938 b 798 679 650 938 798 878 b 538 420 798 481 650 420 z "},"q":{"ha":1146,"x_min":0,"x_max":0,"o":"m 1074 485 b 573 987 1074 843 840 987 b 71 485 305 987 71 843 b 573 -17 71 127 305 -17 b 574 -17 573 -17 574 -17 l 474 -67 l 595 -195 l 862 -195 l 685 -8 b 1074 485 903 29 1074 179 z m 573 16 b 281 485 427 16 281 144 b 573 955 281 826 427 954 b 864 485 718 954 864 826 b 573 16 864 144 718 16 z "},"r":{"ha":1094,"x_min":0,"x_max":0,"o":"m 1043 0 l 724 396 b 1007 679 883 421 1007 508 b 618 971 1007 888 825 971 l 264 971 l 110 890 l 110 0 l 304 0 l 304 388 l 481 388 l 794 0 z m 304 938 l 537 938 b 798 679 650 938 798 878 b 537 420 798 481 650 420 l 304 420 z "},"s":{"ha":1031,"x_min":0,"x_max":0,"o":"m 262 767 b 507 945 262 930 446 945 b 639 943 582 945 639 943 l 714 786 l 922 782 l 922 969 b 507 977 922 969 611 977 b 60 692 337 977 60 956 b 752 210 60 342 752 473 b 511 17 752 15 511 17 b 106 86 511 17 277 2 l 94 56 b 511 -16 256 -8 378 -16 b 963 282 511 -16 963 -16 b 262 767 963 611 262 513 z "},"t":{"ha":1122,"x_min":0,"x_max":0,"o":"m 31 971 l 31 785 l 225 785 l 302 938 l 464 938 l 464 0 l 658 0 l 658 938 l 820 938 l 897 785 l 1091 785 l 1091 971 z "},"u":{"ha":1032,"x_min":0,"x_max":0,"o":"m 932 971 l 738 971 l 738 776 l 892 700 l 892 350 b 593 24 891 155 741 24 b 293 350 382 24 293 155 l 293 971 l 99 971 l 99 358 b 516 -17 99 220 162 -17 b 932 358 867 -17 932 220 z "},"v":{"ha":971,"x_min":0,"x_max":0,"o":"m 945 971 l 738 971 l 683 822 l 803 694 l 568 55 l 232 971 l 25 971 l 381 0 l 588 0 z "},"w":{"ha":1454,"x_min":0,"x_max":0,"o":"m 1221 972 l 1169 820 l 1289 697 l 1291 695 l 1069 58 l 752 972 l 752 972 l 752 972 l 546 972 l 706 511 l 549 58 l 232 972 l 26 972 l 364 0 l 569 0 l 569 0 l 727 453 l 727 453 l 884 0 l 1089 0 l 1427 972 z "},"x":{"ha":975,"x_min":0,"x_max":0,"o":"m 589 519 l 945 972 l 697 972 l 622 876 l 696 721 l 566 553 l 278 972 l 43 972 l 43 972 l 391 464 l 26 1 l 274 1 l 349 96 l 276 252 l 415 430 l 709 1 l 945 1 z "},"y":{"ha":950,"x_min":0,"x_max":0,"o":"m 713 972 l 642 839 l 742 699 l 559 359 l 238 971 l 18 971 l 379 284 l 379 0 l 573 0 l 573 298 l 933 972 z "},"z":{"ha":946,"x_min":0,"x_max":0,"o":"m 621 32 l 292 32 l 901 971 l 83 971 l 83 785 l 277 785 l 354 938 l 649 938 l 39 0 l 892 0 l 892 186 l 698 186 z "},"{":{"ha":382,"x_min":0,"x_max":0,"o":"m 270 24 l 270 340 b 206 478 270 421 239 460 b 270 616 239 496 270 535 l 270 932 b 370 1061 270 932 263 1061 l 369 1093 b 173 939 369 1093 173 1109 l 173 623 b 75 495 173 623 181 495 l 75 461 b 173 333 181 461 173 333 l 173 17 b 369 -137 173 -153 369 -137 l 370 -105 b 270 24 263 -105 270 24 z "},"|":{"ha":264,"x_min":0,"x_max":0,"o":"m 152 -203 l 152 1172 l 111 1172 l 111 -203 z "},"}":{"ha":382,"x_min":0,"x_max":0,"o":"m 208 623 l 208 939 b 11 1093 208 1109 11 1093 l 11 1061 b 110 932 117 1061 110 932 l 111 616 b 175 478 111 535 142 496 b 111 340 142 460 111 421 l 110 24 b 11 -105 110 24 117 -105 l 11 -137 b 208 17 11 -137 208 -153 l 208 333 b 306 461 208 333 200 461 l 306 495 b 208 623 200 495 208 623 z "},"~":{"ha":957,"x_min":0,"x_max":0,"o":"m 46 486 l 46 390 b 910 470 411 659 502 201 l 910 567 b 46 486 546 273 454 756 z "}," ":{"ha":500,"x_min":0,"x_max":0,"o":""},"¡":{"ha":406,"x_min":0,"x_max":0,"o":"m 300 661 l 300 888 l 105 888 l 105 661 z m 283 563 l 121 563 l 97 142 l 97 -85 l 308 -85 l 308 142 z "},"¢":{"ha":1031,"x_min":0,"x_max":0,"o":"m 676 809 l 753 655 l 947 655 l 947 841 l 558 841 l 558 971 l 518 971 l 518 841 b 81 477 259 838 81 770 b 518 115 81 217 278 128 l 518 0 l 558 -1 l 558 114 b 947 168 582 113 758 105 l 937 198 b 558 147 769 141 599 137 l 558 809 z m 518 153 b 291 477 396 182 291 291 b 518 809 291 703 381 801 z "},"£":{"ha":1038,"x_min":0,"x_max":0,"o":"m 690 36 l 347 36 b 363 192 354 73 363 136 b 357 378 363 245 360 294 l 773 378 l 773 410 l 357 410 b 355 553 356 450 355 496 l 773 553 l 773 585 l 355 585 b 645 959 358 976 645 959 b 958 920 645 959 802 963 l 967 950 b 646 991 795 998 646 991 b 645 991 645 991 645 991 b 162 585 319 991 166 781 l 79 585 l 79 553 l 162 553 b 165 410 162 491 163 447 l 79 410 l 79 378 l 167 378 b 175 183 170 319 175 274 b 158 36 175 130 165 72 l 79 36 l 79 4 l 961 4 l 961 190 l 767 190 z "},"¤":{"ha":793,"x_min":0,"x_max":0,"o":"m 574 478 b 551 564 574 510 566 539 l 728 742 l 659 810 l 482 633 b 396 655 457 647 428 655 b 310 633 365 655 335 647 l 133 810 l 64 742 l 241 564 b 219 478 227 539 219 510 b 241 391 219 446 227 417 l 64 215 l 133 146 l 309 323 b 396 301 335 309 364 301 b 482 323 428 301 457 309 l 659 146 l 728 215 l 551 391 b 574 478 566 417 574 446 z m 396 383 b 305 478 346 383 305 423 b 396 573 305 530 345 573 b 487 478 447 573 487 531 b 396 383 487 428 451 383 z "},"¥":{"ha":1032,"x_min":0,"x_max":0,"o":"m 973 972 l 754 972 l 682 839 l 782 699 l 599 359 l 279 971 l 58 971 l 401 319 l 169 319 l 169 287 l 418 287 l 419 284 l 419 145 l 169 145 l 169 112 l 419 112 l 419 0 l 614 0 l 614 112 l 865 112 l 865 145 l 614 145 l 614 287 l 865 287 l 865 319 l 625 319 z "},"§":{"ha":654,"x_min":0,"x_max":0,"o":"m 554 436 b 327 685 554 609 416 650 b 188 851 238 719 188 788 b 327 966 188 931 247 966 b 466 802 407 966 466 906 l 554 802 b 327 1049 554 965 452 1049 b 100 851 202 1049 100 976 b 180 677 100 780 130 723 b 100 513 131 640 100 582 b 327 265 100 341 238 300 b 466 98 417 230 466 161 b 327 -17 466 19 407 -17 b 188 148 247 -17 188 43 l 100 148 b 327 -99 100 -16 202 -99 b 554 98 452 -99 554 -27 b 475 272 554 169 524 227 b 554 436 523 310 554 367 z m 400 323 b 327 355 377 335 353 346 b 188 513 250 381 188 415 b 254 626 188 566 214 605 b 327 595 277 614 301 604 b 466 436 404 569 466 535 b 400 323 466 384 440 344 z "},"¨":{"ha":707,"x_min":0,"x_max":0,"o":"m 305 1039 l 305 1207 l 111 1207 l 111 1039 z m 595 1039 l 595 1207 l 401 1207 l 401 1039 z "},"©":{"ha":1171,"x_min":0,"x_max":0,"o":"m 585 987 b 83 485 308 987 83 762 b 585 -16 83 208 308 -16 b 1087 485 862 -16 1087 208 b 585 987 1087 762 862 987 z m 585 65 b 180 485 353 65 180 253 b 585 906 180 718 353 906 b 990 485 818 906 990 718 b 585 65 990 253 818 65 z m 332 482 b 582 235 332 306 448 235 b 788 271 582 235 685 230 l 781 286 b 582 252 693 248 582 252 b 437 482 509 252 437 315 b 582 712 437 650 509 712 l 653 712 l 691 636 l 789 636 l 789 729 l 582 729 b 332 482 448 728 332 658 z "},"«":{"ha":640,"x_min":0,"x_max":0,"o":"m 352 730 l 260 730 l 60 501 l 60 456 l 259 228 l 352 228 l 166 478 z m 584 730 l 492 730 l 292 501 l 292 456 l 491 228 l 584 228 l 397 478 z "},"­":{"ha":0,"x_min":0,"x_max":0,"o":""},"®":{"ha":1171,"x_min":0,"x_max":0,"o":"m 585 987 b 83 485 308 987 83 762 b 585 -16 83 208 308 -16 b 1087 485 862 -16 1087 208 b 585 987 1087 762 862 987 z m 585 65 b 180 485 353 65 180 253 b 585 906 180 718 353 906 b 990 485 818 906 990 718 b 585 65 990 253 818 65 z m 826 583 b 630 729 826 688 735 729 l 452 729 l 375 689 l 375 241 l 472 241 l 472 437 l 561 437 l 719 241 l 844 241 l 683 440 b 826 583 764 453 826 497 z m 472 453 l 472 713 l 590 713 b 721 583 646 713 721 683 b 590 453 721 483 646 453 z "},"°":{"ha":475,"x_min":0,"x_max":0,"o":"m 237 903 b 60 726 139 903 60 824 b 237 549 60 628 139 549 b 415 726 335 549 415 628 b 237 903 415 824 335 903 z m 237 631 b 146 726 185 631 146 674 b 237 821 146 778 185 821 b 328 726 289 821 328 778 b 237 631 328 674 289 631 z "},"±":{"ha":990,"x_min":0,"x_max":0,"o":"m 915 438 l 915 535 l 543 535 l 543 907 l 446 907 l 446 535 l 74 535 l 74 438 l 446 438 l 446 98 l 74 98 l 74 1 l 915 1 l 915 98 l 543 98 l 543 438 z "},"´":{"ha":457,"x_min":0,"x_max":0,"o":"m 204 1039 l 345 1208 l 222 1208 l 111 1039 z "},"¶":{"ha":865,"x_min":0,"x_max":0,"o":"m 804 971 l 334 971 b 72 719 194 971 72 899 b 334 466 72 538 194 466 l 408 466 l 408 -128 l 448 -128 l 448 939 l 639 939 l 639 -128 l 679 -128 l 679 939 l 804 939 z "},"¸":{"ha":56,"x_min":0,"x_max":0,"o":"m 57 -132 l 46 -132 l 54 2 l 0 2 l -27 -170 b 25 -170 -27 -170 12 -170 b 106 -226 70 -170 106 -172 b 14 -284 106 -267 71 -284 b -101 -284 -12 -284 -101 -284 l -101 -322 l 43 -322 b 178 -225 113 -322 178 -291 b 57 -132 178 -154 120 -132 z "},"»":{"ha":640,"x_min":0,"x_max":0,"o":"m 379 730 l 287 730 l 474 478 l 287 228 l 380 228 l 580 456 l 580 501 z m 348 501 l 148 730 l 56 730 l 242 478 l 56 228 l 148 228 l 348 456 z "},"¿":{"ha":874,"x_min":0,"x_max":0,"o":"m 632 661 l 632 888 l 438 888 l 438 661 z m 811 54 b 494 -68 722 -77 494 -68 b 279 102 365 -68 279 -12 b 397 272 279 166 300 223 b 632 563 561 353 632 417 l 438 563 b 65 142 438 393 65 425 b 494 -101 65 -31 257 -101 b 835 32 494 -101 754 -101 z "},"À":{"ha":971,"x_min":0,"x_max":0,"o":"m 588 971 l 381 971 l 25 0 l 232 0 l 287 149 l 164 279 l 193 356 l 606 356 l 738 0 l 945 0 z m 205 389 l 399 917 l 594 389 z m 602 1039 l 491 1208 l 368 1208 l 509 1039 z "},"Á":{"ha":971,"x_min":0,"x_max":0,"o":"m 588 971 l 381 971 l 25 0 l 232 0 l 287 149 l 164 279 l 193 356 l 606 356 l 738 0 l 945 0 z m 205 389 l 399 917 l 594 389 z m 602 1208 l 479 1208 l 368 1039 l 461 1039 z "},"Â":{"ha":971,"x_min":0,"x_max":0,"o":"m 588 971 l 381 971 l 25 0 l 232 0 l 287 149 l 164 279 l 193 356 l 606 356 l 738 0 l 945 0 z m 205 389 l 399 917 l 594 389 z m 485 1134 l 565 1039 l 658 1039 l 547 1208 l 423 1208 l 312 1039 l 405 1039 z "},"Ã":{"ha":971,"x_min":0,"x_max":0,"o":"m 588 971 l 381 971 l 25 0 l 232 0 l 287 149 l 164 279 l 193 356 l 606 356 l 738 0 l 945 0 z m 205 389 l 399 917 l 594 389 z m 629 1070 l 629 1161 b 341 1135 507 1063 477 1224 l 341 1043 b 629 1070 462 1133 493 980 z "},"Ä":{"ha":971,"x_min":0,"x_max":0,"o":"m 437 1039 l 437 1206 l 243 1206 l 243 1039 z m 727 1039 l 727 1206 l 533 1206 l 533 1039 z m 588 971 l 381 971 l 25 0 l 232 0 l 287 149 l 164 279 l 193 356 l 606 356 l 738 0 l 945 0 z m 205 389 l 399 917 l 594 389 z "},"Å":{"ha":971,"x_min":0,"x_max":0,"o":"m 588 971 l 381 971 l 25 0 l 232 0 l 287 149 l 164 279 l 193 356 l 606 356 l 738 0 l 945 0 z m 205 389 l 399 917 l 594 389 z m 485 1011 b 612 1138 555 1011 612 1068 b 485 1266 612 1209 555 1266 b 357 1138 415 1266 357 1209 b 485 1011 357 1068 415 1011 z m 485 1183 b 528 1138 510 1183 528 1163 b 485 1094 528 1114 510 1094 b 442 1138 460 1094 442 1114 b 485 1183 442 1163 460 1183 z "},"Æ":{"ha":1367,"x_min":0,"x_max":0,"o":"m 1034 939 l 1111 785 l 1305 785 l 1305 971 l 382 971 l 25 0 l 232 0 l 287 149 l 164 279 l 193 356 l 560 356 l 560 0 l 1305 0 l 1305 186 l 1111 186 l 1034 33 l 755 33 l 755 486 l 1143 486 l 1143 518 l 755 518 l 755 939 z m 560 389 l 205 389 l 407 939 l 560 939 z "},"Ç":{"ha":1038,"x_min":0,"x_max":0,"o":"m 567 946 l 706 944 l 780 787 l 988 783 l 988 970 l 567 978 b 69 474 302 978 69 833 b 566 -15 69 126 301 -15 b 581 -14 571 -15 576 -14 l 558 -171 b 610 -171 558 -171 597 -171 b 690 -227 654 -171 690 -176 b 599 -285 690 -268 655 -285 b 484 -285 573 -285 484 -285 l 484 -322 l 628 -322 b 761 -226 696 -322 761 -291 b 642 -134 761 -156 704 -134 l 631 -134 l 638 -13 b 988 59 777 -6 887 21 l 976 93 b 644 33 865 55 781 33 b 278 474 322 33 278 322 b 567 946 278 806 423 945 z "},"È":{"ha":915,"x_min":0,"x_max":0,"o":"m 582 939 l 659 785 l 853 785 l 853 971 l 262 971 l 108 890 l 108 0 l 853 0 l 853 186 l 659 186 l 582 33 l 303 33 l 303 486 l 691 486 l 691 518 l 303 518 l 303 939 z m 597 1039 l 486 1208 l 364 1208 l 505 1039 z "},"É":{"ha":915,"x_min":0,"x_max":0,"o":"m 582 939 l 659 785 l 853 785 l 853 971 l 262 971 l 108 890 l 108 0 l 853 0 l 853 186 l 659 186 l 582 33 l 303 33 l 303 486 l 691 486 l 691 518 l 303 518 l 303 939 z m 598 1208 l 475 1208 l 364 1039 l 457 1039 z "},"Ê":{"ha":915,"x_min":0,"x_max":0,"o":"m 582 939 l 659 785 l 853 785 l 853 971 l 262 971 l 108 890 l 108 0 l 853 0 l 853 186 l 659 186 l 582 33 l 303 33 l 303 486 l 691 486 l 691 518 l 303 518 l 303 939 z m 481 1134 l 560 1039 l 653 1039 l 542 1208 l 419 1208 l 308 1039 l 401 1039 z "},"Ë":{"ha":915,"x_min":0,"x_max":0,"o":"m 582 939 l 659 785 l 853 785 l 853 971 l 262 971 l 108 890 l 108 0 l 853 0 l 853 186 l 659 186 l 582 33 l 303 33 l 303 486 l 691 486 l 691 518 l 303 518 l 303 939 z m 433 1039 l 433 1206 l 239 1206 l 239 1039 z m 723 1039 l 723 1206 l 528 1206 l 528 1039 z "},"Ì":{"ha":415,"x_min":0,"x_max":0,"o":"m 304 1 l 304 971 l 110 971 l 110 1 z m 324 1039 l 213 1208 l 90 1208 l 231 1039 z "},"Í":{"ha":415,"x_min":0,"x_max":0,"o":"m 304 1 l 304 971 l 110 971 l 110 1 z m 324 1208 l 201 1208 l 90 1039 l 183 1039 z "},"Î":{"ha":415,"x_min":0,"x_max":0,"o":"m 305 1 l 305 971 l 110 971 l 110 1 z m 208 1134 l 287 1039 l 380 1039 l 269 1208 l 146 1208 l 35 1039 l 128 1039 z "},"Ï":{"ha":415,"x_min":0,"x_max":0,"o":"m 160 1039 l 160 1206 l -35 1206 l -35 1039 z m 450 1039 l 450 1206 l 255 1206 l 255 1039 z m 305 1 l 305 971 l 110 971 l 110 1 z "},"Ð":{"ha":1147,"x_min":0,"x_max":0,"o":"m 576 971 l 317 971 l 163 890 l 163 517 l 39 517 l 39 485 l 163 485 l 163 -1 l 576 -1 b 1078 485 844 -1 1078 138 b 576 971 1078 832 844 971 z m 576 32 l 358 32 l 358 485 l 722 485 l 722 517 l 358 517 l 358 938 l 576 938 b 868 485 722 938 868 815 b 576 32 868 155 722 32 z "},"Ñ":{"ha":1128,"x_min":0,"x_max":0,"o":"m 800 -8 l 1016 29 l 1016 968 l 822 968 l 822 774 l 975 697 l 975 86 l 351 968 l 111 968 l 111 -3 l 305 -3 l 305 191 l 152 268 l 152 912 z m 708 1067 l 708 1159 b 419 1132 586 1060 555 1222 l 419 1041 b 708 1067 541 1130 572 978 z "},"Ò":{"ha":1143,"x_min":0,"x_max":0,"o":"m 571 988 b 69 486 304 987 69 844 b 571 -16 69 128 303 -16 b 1073 486 839 -16 1073 128 b 571 988 1073 844 839 987 z m 571 16 b 280 486 426 16 280 145 b 571 955 280 827 426 955 b 863 486 717 955 863 827 b 571 16 863 145 717 16 z m 688 1039 l 577 1208 l 454 1208 l 595 1039 z "},"Ó":{"ha":1143,"x_min":0,"x_max":0,"o":"m 571 988 b 69 486 304 987 69 844 b 571 -16 69 128 303 -16 b 1073 486 839 -16 1073 128 b 571 988 1073 844 839 987 z m 571 16 b 280 486 426 16 280 145 b 571 955 280 827 426 955 b 863 486 717 955 863 827 b 571 16 863 145 717 16 z m 688 1208 l 566 1208 l 454 1039 l 547 1039 z "},"Ô":{"ha":1143,"x_min":0,"x_max":0,"o":"m 571 988 b 69 486 304 987 69 844 b 571 -16 69 128 303 -16 b 1073 486 839 -16 1073 128 b 571 988 1073 844 839 987 z m 571 16 b 280 486 426 16 280 145 b 571 955 280 827 426 955 b 863 486 717 955 863 827 b 571 16 863 145 717 16 z m 571 1134 l 651 1039 l 744 1039 l 633 1208 l 510 1208 l 398 1039 l 491 1039 z "},"Õ":{"ha":1143,"x_min":0,"x_max":0,"o":"m 571 988 b 69 486 304 987 69 844 b 571 -16 69 128 303 -16 b 1073 486 839 -16 1073 128 b 571 988 1073 844 839 987 z m 571 16 b 280 486 426 16 280 145 b 571 955 280 827 426 955 b 863 486 717 955 863 827 b 571 16 863 145 717 16 z m 715 1070 l 715 1161 b 427 1135 594 1063 563 1224 l 427 1043 b 715 1070 549 1133 579 980 z "},"Ö":{"ha":1143,"x_min":0,"x_max":0,"o":"m 523 1039 l 523 1206 l 329 1206 l 329 1039 z m 813 1039 l 813 1206 l 619 1206 l 619 1039 z m 571 988 b 69 486 304 987 69 844 b 571 -16 69 128 303 -16 b 1073 486 839 -16 1073 128 b 571 988 1073 844 839 987 z m 571 16 b 280 486 426 16 280 145 b 571 955 280 827 426 955 b 863 486 717 955 863 827 b 571 16 863 145 717 16 z "},"×":{"ha":792,"x_min":0,"x_max":0,"o":"m 464 478 l 728 742 l 659 810 l 396 547 l 133 810 l 64 742 l 327 478 l 64 215 l 133 146 l 396 410 l 659 146 l 728 215 z "},"Ø":{"ha":1143,"x_min":0,"x_max":0,"o":"m 897 891 l 936 946 l 903 969 l 863 913 b 571 987 779 964 678 987 b 69 485 304 987 69 843 b 262 68 69 280 146 146 l 207 -10 l 239 -34 l 297 47 b 571 -16 377 3 472 -16 b 1073 485 839 -16 1073 127 b 897 891 1073 680 1003 812 z m 280 485 b 571 955 280 826 426 954 b 793 815 654 955 737 913 l 339 176 b 280 485 303 250 280 351 z m 571 16 b 361 138 494 16 417 53 l 813 773 b 863 485 844 702 863 607 b 571 16 863 145 717 16 z "},"Ù":{"ha":1032,"x_min":0,"x_max":0,"o":"m 632 1038 l 521 1207 l 399 1207 l 539 1038 z m 738 971 l 738 776 l 892 700 l 892 350 b 593 24 891 155 741 24 b 293 350 382 24 293 155 l 293 971 l 99 971 l 99 358 b 516 -17 99 220 162 -17 b 932 358 867 -17 932 220 l 932 971 z "},"Ú":{"ha":1032,"x_min":0,"x_max":0,"o":"m 632 1207 l 510 1207 l 399 1038 l 491 1038 z m 738 971 l 738 776 l 892 700 l 892 349 b 593 24 891 155 741 24 b 293 350 382 24 293 155 l 293 971 l 99 971 l 99 358 b 516 -17 99 220 162 -17 b 932 358 867 -17 932 220 l 932 971 z "},"Û":{"ha":1032,"x_min":0,"x_max":0,"o":"m 515 1134 l 595 1038 l 688 1038 l 577 1207 l 454 1207 l 343 1038 l 436 1038 z m 738 971 l 738 776 l 892 700 l 892 350 b 593 24 891 155 741 24 b 293 350 382 24 293 155 l 293 971 l 99 971 l 99 358 b 516 -17 99 220 162 -17 b 932 358 867 -17 932 220 l 932 971 z "},"Ü":{"ha":1032,"x_min":0,"x_max":0,"o":"m 467 1038 l 467 1206 l 273 1206 l 273 1038 z m 757 1038 l 757 1206 l 563 1206 l 563 1038 z m 738 971 l 738 776 l 892 700 l 892 349 b 593 24 891 155 741 24 b 293 350 382 24 293 155 l 293 971 l 99 971 l 99 358 b 516 -17 99 220 162 -17 b 932 358 867 -17 932 220 l 932 971 z "},"Ý":{"ha":949,"x_min":0,"x_max":0,"o":"m 591 1208 l 468 1208 l 357 1039 l 450 1039 z m 712 972 l 641 839 l 740 699 l 558 359 l 237 971 l 17 971 l 378 284 l 378 0 l 572 0 l 572 298 l 932 972 z "},"Þ":{"ha":1058,"x_min":0,"x_max":0,"o":"m 620 777 l 305 777 l 305 971 l 111 971 l 111 0 l 305 0 l 305 194 l 620 194 b 1008 485 826 194 1008 277 b 620 777 1008 694 826 777 z m 539 226 l 305 226 l 305 744 l 539 744 b 799 485 651 744 799 684 b 539 226 799 287 651 226 z "},"ß":{"ha":1078,"x_min":0,"x_max":0,"o":"m 775 564 l 937 932 b 587 987 937 932 761 987 b 244 923 452 987 332 971 b 101 643 156 874 101 776 l 101 0 l 296 0 l 296 643 b 586 954 296 895 430 954 b 733 938 669 954 733 938 l 560 558 b 691 485 560 558 626 536 b 807 256 756 434 807 370 b 585 6 807 77 697 6 b 410 30 585 6 508 5 l 403 8 b 585 -17 514 -21 585 -17 b 1018 276 790 -17 1018 37 b 775 564 1018 438 898 517 z "},"à":{"ha":975,"x_min":0,"x_max":0,"o":"m 590 971 l 383 971 l 26 0 l 233 0 l 288 149 l 166 279 l 194 356 l 607 356 l 739 0 l 946 0 z m 206 389 l 400 917 l 596 389 z m 603 1039 l 492 1207 l 369 1207 l 510 1039 z "},"á":{"ha":975,"x_min":0,"x_max":0,"o":"m 590 971 l 383 971 l 26 0 l 233 0 l 288 149 l 166 279 l 194 356 l 607 356 l 739 0 l 946 0 z m 206 389 l 400 917 l 596 389 z m 603 1207 l 481 1207 l 369 1039 l 462 1039 z "},"â":{"ha":975,"x_min":0,"x_max":0,"o":"m 590 971 l 383 971 l 26 0 l 233 0 l 288 149 l 166 279 l 194 356 l 608 356 l 739 0 l 946 0 z m 206 389 l 400 917 l 595 389 z m 486 1134 l 566 1039 l 659 1039 l 548 1207 l 425 1207 l 314 1039 l 406 1039 z "},"ã":{"ha":975,"x_min":0,"x_max":0,"o":"m 590 971 l 383 971 l 26 0 l 233 0 l 288 149 l 166 279 l 194 356 l 607 356 l 739 0 l 946 0 z m 206 389 l 400 917 l 595 389 z m 630 1070 l 630 1161 b 342 1134 509 1063 478 1224 l 342 1043 b 630 1070 464 1133 494 980 z "},"ä":{"ha":975,"x_min":0,"x_max":0,"o":"m 438 1039 l 438 1206 l 244 1206 l 244 1039 z m 728 1039 l 728 1206 l 534 1206 l 534 1039 z m 590 971 l 383 971 l 26 0 l 233 0 l 288 149 l 166 279 l 194 356 l 607 356 l 739 0 l 946 0 z m 206 389 l 400 917 l 595 389 z "},"å":{"ha":975,"x_min":0,"x_max":0,"o":"m 590 971 l 383 971 l 26 0 l 233 0 l 288 149 l 166 279 l 194 356 l 607 356 l 739 0 l 946 0 z m 206 389 l 400 917 l 595 389 z m 486 1011 b 614 1138 557 1011 614 1068 b 486 1266 614 1209 557 1266 b 359 1138 416 1266 359 1209 b 486 1011 359 1068 416 1011 z m 486 1183 b 529 1138 511 1183 529 1163 b 486 1093 529 1113 511 1093 b 443 1138 462 1093 443 1113 b 486 1183 443 1163 462 1183 z "},"æ":{"ha":1371,"x_min":0,"x_max":0,"o":"m 1035 939 l 1112 785 l 1306 785 l 1306 971 l 383 971 l 26 0 l 233 0 l 288 149 l 166 279 l 194 356 l 562 356 l 562 0 l 1306 0 l 1306 186 l 1112 186 l 1035 32 l 756 32 l 756 486 l 1145 486 l 1145 518 l 756 518 l 756 939 z m 562 389 l 206 389 l 408 939 l 562 939 z "},"ç":{"ha":1040,"x_min":0,"x_max":0,"o":"m 568 945 l 707 943 l 782 787 l 990 782 l 990 969 l 568 977 b 71 473 303 977 71 832 b 567 -15 71 125 302 -15 b 582 -15 573 -15 577 -15 l 559 -172 b 611 -172 559 -172 598 -172 b 691 -228 655 -172 691 -176 b 601 -285 691 -268 657 -285 b 486 -285 574 -285 486 -285 l 486 -322 l 629 -322 b 763 -226 698 -322 763 -291 b 643 -135 763 -156 705 -135 l 632 -135 l 640 -13 b 990 59 779 -6 889 21 l 977 92 b 645 32 867 54 782 32 b 279 473 323 32 279 322 b 568 945 279 805 424 945 z "},"è":{"ha":919,"x_min":0,"x_max":0,"o":"m 583 939 l 660 785 l 854 785 l 854 971 l 263 971 l 110 890 l 110 0 l 854 0 l 854 186 l 660 186 l 583 32 l 304 32 l 304 485 l 692 485 l 692 518 l 304 518 l 304 939 z m 599 1038 l 488 1207 l 365 1207 l 506 1038 z "},"é":{"ha":919,"x_min":0,"x_max":0,"o":"m 583 939 l 660 785 l 854 785 l 854 971 l 263 971 l 110 890 l 110 0 l 854 0 l 854 186 l 660 186 l 583 32 l 304 32 l 304 485 l 692 485 l 692 518 l 304 518 l 304 939 z m 599 1207 l 476 1207 l 365 1038 l 458 1038 z "},"ê":{"ha":919,"x_min":0,"x_max":0,"o":"m 583 939 l 660 785 l 854 785 l 854 971 l 263 971 l 110 890 l 110 0 l 854 0 l 854 186 l 660 186 l 583 32 l 304 32 l 304 485 l 692 485 l 692 518 l 304 518 l 304 939 z m 482 1134 l 562 1038 l 655 1038 l 544 1207 l 420 1207 l 309 1038 l 402 1038 z "},"ë":{"ha":919,"x_min":0,"x_max":0,"o":"m 583 939 l 660 785 l 854 785 l 854 971 l 263 971 l 110 890 l 110 0 l 854 0 l 854 186 l 660 186 l 583 32 l 304 32 l 304 485 l 692 485 l 692 518 l 304 518 l 304 939 z m 434 1038 l 434 1206 l 240 1206 l 240 1038 z m 724 1038 l 724 1206 l 530 1206 l 530 1038 z "},"ì":{"ha":418,"x_min":0,"x_max":0,"o":"m 306 0 l 306 971 l 111 971 l 111 0 z m 325 1038 l 214 1207 l 92 1207 l 233 1038 z "},"í":{"ha":418,"x_min":0,"x_max":0,"o":"m 306 0 l 306 971 l 111 971 l 111 0 z m 325 1207 l 203 1207 l 92 1038 l 185 1038 z "},"î":{"ha":418,"x_min":0,"x_max":0,"o":"m 306 0 l 306 971 l 112 971 l 112 0 z m 209 1134 l 289 1038 l 382 1038 l 271 1207 l 147 1207 l 36 1038 l 129 1038 z "},"ï":{"ha":418,"x_min":0,"x_max":0,"o":"m 161 1038 l 161 1206 l -33 1206 l -33 1038 z m 451 1038 l 451 1206 l 257 1206 l 257 1038 z m 306 0 l 306 971 l 112 971 l 112 0 z "},"ð":{"ha":1150,"x_min":0,"x_max":0,"o":"m 578 971 l 319 971 l 165 890 l 165 518 l 40 518 l 40 486 l 165 486 l 165 0 l 578 0 b 1079 486 846 0 1079 139 b 578 971 1079 833 846 971 z m 578 32 l 359 32 l 359 486 l 723 486 l 723 518 l 359 518 l 359 939 l 578 939 b 869 486 723 939 869 816 b 578 32 869 155 723 32 z "},"ñ":{"ha":1131,"x_min":0,"x_max":0,"o":"m 802 -8 l 1017 29 l 1017 968 l 823 968 l 823 774 l 977 697 l 977 86 l 353 968 l 113 968 l 113 -3 l 307 -3 l 307 191 l 153 268 l 153 912 z m 709 1067 l 709 1159 b 421 1132 587 1060 557 1222 l 421 1041 b 709 1067 542 1130 573 978 z "},"ò":{"ha":1146,"x_min":0,"x_max":0,"o":"m 573 987 b 71 485 305 987 71 843 b 573 -17 71 127 305 -17 b 1074 485 841 -17 1074 127 b 573 987 1074 843 840 987 z m 573 16 b 281 485 427 16 281 144 b 573 955 281 826 427 954 b 864 485 718 954 864 826 b 573 16 864 144 718 16 z m 690 1038 l 578 1207 l 456 1207 l 597 1038 z "},"ó":{"ha":1146,"x_min":0,"x_max":0,"o":"m 573 987 b 71 485 305 987 71 843 b 573 -17 71 127 305 -17 b 1074 485 841 -17 1074 127 b 573 987 1074 843 840 987 z m 573 16 b 281 485 427 16 281 144 b 573 955 281 826 427 954 b 864 485 718 954 864 826 b 573 16 864 144 718 16 z m 690 1207 l 567 1207 l 456 1038 l 549 1038 z "},"ô":{"ha":1146,"x_min":0,"x_max":0,"o":"m 573 987 b 71 485 305 987 71 843 b 573 -17 71 127 305 -17 b 1074 485 841 -17 1074 127 b 573 987 1074 843 840 987 z m 573 16 b 281 485 427 16 281 144 b 573 955 281 826 427 954 b 864 485 718 954 864 826 b 573 16 864 144 718 16 z m 573 1134 l 653 1038 l 745 1038 l 634 1207 l 511 1207 l 400 1038 l 493 1038 z "},"õ":{"ha":1146,"x_min":0,"x_max":0,"o":"m 573 987 b 71 485 305 987 71 843 b 573 -17 71 127 305 -17 b 1074 485 841 -17 1074 127 b 573 987 1074 843 840 987 z m 573 16 b 281 485 427 16 281 144 b 573 955 281 826 427 954 b 864 485 718 954 864 826 b 573 16 864 144 718 16 z m 717 1070 l 717 1161 b 428 1134 595 1063 565 1224 l 428 1043 b 717 1070 550 1133 581 980 z "},"ö":{"ha":1146,"x_min":0,"x_max":0,"o":"m 525 1038 l 525 1206 l 331 1206 l 331 1038 z m 815 1038 l 815 1206 l 620 1206 l 620 1038 z m 573 987 b 71 485 305 987 71 843 b 573 -17 71 127 305 -17 b 1074 485 841 -17 1074 127 b 573 987 1074 843 840 987 z m 573 16 b 281 485 427 16 281 144 b 573 955 281 826 427 954 b 864 485 718 954 864 826 b 573 16 864 144 718 16 z "},"÷":{"ha":915,"x_min":0,"x_max":0,"o":"m 554 681 l 554 908 l 360 908 l 360 681 z m 554 66 l 554 292 l 360 292 l 360 66 z m 878 438 l 878 535 l 36 535 l 36 438 z "},"ø":{"ha":1146,"x_min":0,"x_max":0,"o":"m 898 891 l 937 946 l 904 969 l 864 913 b 573 987 781 963 680 987 b 71 485 305 987 71 843 b 264 68 71 280 148 146 l 208 -10 l 241 -34 l 298 47 b 573 -17 378 3 473 -17 b 1074 485 840 -17 1074 127 b 898 891 1074 680 1005 811 z m 281 485 b 573 955 281 826 427 954 b 794 814 655 954 738 913 l 341 176 b 281 485 304 250 281 351 z m 573 16 b 363 138 495 16 418 53 l 814 773 b 864 485 845 702 864 607 b 573 16 864 144 718 16 z "},"ù":{"ha":1035,"x_min":0,"x_max":0,"o":"m 634 1038 l 522 1207 l 400 1207 l 541 1038 z m 739 971 l 739 776 l 893 700 l 893 350 b 594 24 892 155 742 24 b 294 350 383 24 294 155 l 294 971 l 100 971 l 100 358 b 518 -17 100 220 164 -17 b 934 358 868 -17 934 220 l 934 971 z "},"ú":{"ha":1035,"x_min":0,"x_max":0,"o":"m 634 1207 l 511 1207 l 400 1038 l 493 1038 z m 739 971 l 739 776 l 893 700 l 893 349 b 594 24 892 155 742 24 b 294 350 383 24 294 155 l 294 971 l 100 971 l 100 358 b 518 -17 100 220 164 -17 b 934 358 868 -17 934 220 l 934 971 z "},"û":{"ha":1035,"x_min":0,"x_max":0,"o":"m 517 1134 l 597 1038 l 690 1038 l 578 1207 l 455 1207 l 344 1038 l 437 1038 z m 739 971 l 739 776 l 893 700 l 893 350 b 594 24 892 155 742 24 b 294 350 383 24 294 155 l 294 971 l 100 971 l 100 358 b 518 -17 100 220 164 -17 b 934 358 868 -17 934 220 l 934 971 z "},"ü":{"ha":1035,"x_min":0,"x_max":0,"o":"m 469 1038 l 469 1206 l 275 1206 l 275 1038 z m 759 1038 l 759 1206 l 565 1206 l 565 1038 z m 739 971 l 739 776 l 893 700 l 893 349 b 594 24 892 155 742 24 b 294 350 383 24 294 155 l 294 971 l 100 971 l 100 358 b 518 -17 100 220 164 -17 b 934 358 868 -17 934 220 l 934 971 z "},"ý":{"ha":950,"x_min":0,"x_max":0,"o":"m 592 1208 l 470 1208 l 359 1039 l 452 1039 z m 713 972 l 642 839 l 742 699 l 559 359 l 238 971 l 18 971 l 379 284 l 379 0 l 573 0 l 573 298 l 933 972 z "},"þ":{"ha":1060,"x_min":0,"x_max":0,"o":"m 620 777 l 305 777 l 305 971 l 111 971 l 111 0 l 305 0 l 305 194 l 620 194 b 1008 486 826 194 1008 278 b 620 777 1008 694 826 777 z m 539 227 l 305 227 l 305 745 l 539 745 b 799 486 651 745 799 684 b 539 227 799 288 651 227 z "},"ÿ":{"ha":950,"x_min":0,"x_max":0,"o":"m 713 972 l 642 839 l 742 699 l 559 359 l 238 971 l 18 971 l 379 284 l 379 0 l 573 0 l 573 298 l 933 972 z m 428 1039 l 428 1207 l 233 1207 l 233 1039 z m 718 1039 l 718 1207 l 523 1207 l 523 1039 z "},"ı":{"ha":419,"x_min":0,"x_max":0,"o":"m 307 0 l 307 970 l 113 970 l 113 0 z "},"Ł":{"ha":942,"x_min":0,"x_max":0,"o":"m 716 185 l 639 32 l 360 32 l 360 465 l 725 779 l 725 812 l 360 497 l 360 971 l 166 971 l 166 330 l 42 223 l 42 191 l 166 297 l 166 80 l 319 -1 l 910 -1 l 910 185 z "},"ł":{"ha":942,"x_min":0,"x_max":0,"o":"m 716 186 l 639 32 l 360 32 l 360 466 l 725 780 l 725 812 l 360 498 l 360 971 l 166 971 l 166 330 l 42 224 l 42 191 l 166 298 l 166 81 l 319 0 l 910 0 l 910 186 z "},"Œ":{"ha":1671,"x_min":0,"x_max":0,"o":"m 883 900 b 571 987 796 960 687 987 b 69 485 304 987 69 843 b 571 -17 69 127 303 -17 b 863 57 678 -17 779 6 l 863 -1 l 1607 -1 l 1607 185 l 1413 185 l 1336 32 l 1057 32 l 1057 337 b 1073 485 1067 381 1073 430 l 1073 485 l 1445 485 l 1445 517 l 1072 517 b 1057 633 1070 559 1065 598 l 1057 938 l 1336 938 l 1413 784 l 1607 784 l 1607 971 l 1016 971 z m 571 15 b 280 485 426 15 280 144 b 571 954 280 826 426 954 b 863 485 717 954 863 826 b 571 15 863 144 717 16 z "},"œ":{"ha":1674,"x_min":0,"x_max":0,"o":"m 884 900 b 573 987 797 960 688 987 b 71 485 305 987 71 843 b 573 -17 71 127 305 -17 b 864 57 680 -17 781 6 l 864 -1 l 1609 -1 l 1609 185 l 1414 185 l 1338 32 l 1058 32 l 1058 337 b 1074 485 1068 381 1074 430 l 1074 485 l 1447 485 l 1447 517 l 1073 517 b 1058 633 1071 559 1066 598 l 1058 938 l 1338 938 l 1414 784 l 1609 784 l 1609 971 l 1017 971 z m 573 15 b 281 485 427 15 281 144 b 573 954 281 826 427 954 b 864 485 718 954 864 826 b 573 15 864 144 718 16 z "},"Š":{"ha":1029,"x_min":0,"x_max":0,"o":"m 262 767 b 507 945 262 930 446 945 b 639 942 582 945 639 942 l 714 786 l 922 781 l 922 968 b 507 976 922 968 611 976 b 60 692 337 976 60 956 b 752 210 60 342 752 472 b 511 16 752 14 511 16 b 106 85 511 16 277 1 l 94 55 b 511 -17 256 -8 378 -17 b 963 281 511 -17 963 -17 b 262 767 963 610 262 513 z m 573 1044 l 684 1213 l 591 1213 l 511 1117 l 431 1213 l 338 1213 l 450 1044 z "},"š":{"ha":1031,"x_min":0,"x_max":0,"o":"m 262 767 b 507 945 262 930 446 945 b 639 942 582 945 639 942 l 714 786 l 922 781 l 922 968 b 507 976 922 968 611 976 b 60 692 337 976 60 956 b 752 210 60 342 752 472 b 511 16 752 14 511 16 b 106 85 511 16 277 1 l 94 55 b 511 -17 256 -8 378 -17 b 963 281 511 -17 963 -17 b 262 767 963 610 262 513 z m 573 1044 l 684 1213 l 591 1213 l 511 1117 l 431 1213 l 338 1213 l 450 1044 z "},"Ÿ":{"ha":949,"x_min":0,"x_max":0,"o":"m 712 972 l 641 839 l 740 699 l 558 359 l 237 971 l 17 971 l 378 284 l 378 0 l 572 0 l 572 298 l 932 972 z m 426 1039 l 426 1207 l 232 1207 l 232 1039 z m 716 1039 l 716 1207 l 522 1207 l 522 1039 z "},"Ž":{"ha":944,"x_min":0,"x_max":0,"o":"m 620 32 l 290 32 l 900 971 l 82 971 l 82 784 l 276 784 l 353 938 l 647 938 l 38 -1 l 891 -1 l 891 185 l 697 185 z m 530 1038 l 641 1207 l 549 1207 l 469 1111 l 389 1207 l 296 1207 l 407 1038 z "},"ž":{"ha":946,"x_min":0,"x_max":0,"o":"m 621 32 l 292 32 l 901 971 l 83 971 l 83 785 l 277 785 l 354 939 l 649 939 l 39 0 l 893 0 l 893 186 l 698 186 z m 532 1038 l 643 1207 l 550 1207 l 470 1112 l 390 1207 l 297 1207 l 408 1038 z "},"ˆ":{"ha":568,"x_min":0,"x_max":0,"o":"m 345 1208 l 222 1208 l 111 1039 l 204 1039 l 284 1135 l 364 1039 l 457 1039 z "},"ˇ":{"ha":568,"x_min":0,"x_max":0,"o":"m 364 1208 l 284 1112 l 204 1208 l 111 1208 l 222 1039 l 345 1039 l 457 1208 z "},"˜":{"ha":511,"x_min":0,"x_max":0,"o":"m 111 1132 l 111 1041 b 399 1068 233 1131 263 978 l 399 1159 b 111 1132 278 1061 247 1222 z "},"–":{"ha":882,"x_min":0,"x_max":0,"o":"m 861 459 l 861 491 l 19 491 l 19 459 z "},"—":{"ha":1175,"x_min":0,"x_max":0,"o":"m 1156 459 l 1156 491 l 19 491 l 19 459 z "},"‘":{"ha":326,"x_min":0,"x_max":0,"o":"m 106 824 b 233 971 122 912 179 953 l 225 1001 b 68 791 134 969 68 894 l 68 581 l 262 581 l 262 791 z "},"’":{"ha":329,"x_min":0,"x_max":0,"o":"m 67 975 l 67 765 l 223 732 b 96 585 206 644 150 604 l 104 555 b 261 765 195 587 261 662 l 261 975 z "},"‚":{"ha":300,"x_min":0,"x_max":0,"o":"m 53 226 l 53 -1 l 190 -1 l 69 -170 l 102 -194 l 247 10 l 247 226 z "},"‛":{"ha":324,"x_min":0,"x_max":0,"o":"m 65 1000 l 65 790 b 222 580 65 687 132 612 l 230 611 b 103 758 177 629 120 670 l 260 791 l 260 1000 z "},"“":{"ha":615,"x_min":0,"x_max":0,"o":"m 233 971 l 225 1001 b 68 791 134 969 68 894 l 68 581 l 262 581 l 262 791 l 105 824 b 233 971 123 912 179 953 z m 394 824 b 522 971 411 912 468 953 l 514 1001 b 357 791 423 969 357 894 l 357 581 l 551 581 l 551 791 z "},"”":{"ha":618,"x_min":0,"x_max":0,"o":"m 355 975 l 355 765 l 512 732 b 384 585 495 644 438 604 l 393 555 b 550 765 483 587 550 662 l 550 975 z m 67 765 l 223 732 b 96 585 206 644 150 604 l 104 555 b 261 765 195 587 261 662 l 261 975 l 67 975 l 67 765 z "},"„":{"ha":590,"x_min":0,"x_max":0,"o":"m 53 -1 l 190 -1 l 69 -170 l 102 -194 l 247 10 l 247 226 l 53 226 z m 343 226 l 343 -1 l 480 -1 l 359 -170 l 392 -194 l 537 10 l 537 226 z "},"†":{"ha":718,"x_min":0,"x_max":0,"o":"m 407 782 l 407 1035 l 310 1035 l 310 782 l 56 782 l 56 685 l 310 685 l 310 -65 l 407 -65 l 407 685 l 662 685 l 662 782 z "},"‡":{"ha":768,"x_min":0,"x_max":0,"o":"m 687 685 l 687 782 l 432 782 l 432 1035 l 335 1035 l 335 782 l 81 782 l 81 685 l 335 685 l 335 285 l 81 285 l 81 188 l 335 188 l 335 -65 l 432 -65 l 432 188 l 687 188 l 687 285 l 432 285 l 432 685 z "},"•":{"ha":475,"x_min":0,"x_max":0,"o":"m 237 295 b 415 472 335 295 415 374 b 237 650 415 570 335 650 b 60 472 139 650 60 570 b 237 295 60 374 139 295 z "},"…":{"ha":1017,"x_min":0,"x_max":0,"o":"m 605 1 l 605 227 l 411 227 l 411 1 z m 247 1 l 247 227 l 53 227 l 53 1 z m 963 1 l 963 227 l 769 227 l 769 1 z "},"‰":{"ha":1496,"x_min":0,"x_max":0,"o":"m 514 731 b 294 983 514 911 429 983 b 75 731 160 983 75 911 b 294 479 75 552 160 479 b 514 731 429 479 514 552 z m 181 731 b 294 967 181 902 221 967 b 408 731 367 967 408 902 b 294 496 408 560 367 496 b 181 731 221 496 181 560 z m 1202 483 b 1035 416 1130 483 1074 462 b 869 483 997 462 940 483 b 650 231 735 483 650 411 b 869 -21 650 52 735 -21 b 1035 47 940 -21 997 1 b 1202 -21 1074 1 1130 -21 b 1421 231 1336 -21 1421 52 b 1202 483 1421 411 1336 483 z m 869 -4 b 755 231 796 -4 755 60 b 869 467 755 402 796 467 b 983 231 942 467 983 402 b 869 -4 983 60 942 -4 z m 1202 -4 b 1088 231 1129 -4 1088 60 b 1202 467 1088 402 1129 467 b 1316 231 1275 467 1316 402 b 1202 -4 1316 60 1275 -4 z m 946 958 l 913 981 l 217 2 l 250 -22 z "},"‹":{"ha":408,"x_min":0,"x_max":0,"o":"m 352 730 l 260 730 l 60 501 l 60 456 l 259 228 l 352 228 l 166 478 z "},"›":{"ha":408,"x_min":0,"x_max":0,"o":"m 148 730 l 56 730 l 242 478 l 56 228 l 148 228 l 348 456 l 348 501 z "},"⁄":{"ha":813,"x_min":0,"x_max":0,"o":"m 769 957 l 737 981 l 40 2 l 73 -22 z "},"€":{"ha":1146,"x_min":0,"x_max":0,"o":"m 780 17 l 648 15 b 360 377 517 15 387 116 l 875 377 l 875 409 l 357 409 b 358 550 356 431 356 527 l 875 550 l 875 582 l 361 582 b 648 939 388 839 518 939 l 780 936 l 854 781 l 1063 776 l 1063 962 l 648 970 b 152 582 407 970 195 857 l 68 582 l 68 550 l 147 550 b 147 409 145 527 145 431 l 68 409 l 68 377 l 151 377 b 648 -17 192 98 406 -17 l 1063 -8 l 1063 178 l 855 173 z "},"™":{"ha":1519,"x_min":0,"x_max":0,"o":"m 49 856 l 168 856 l 216 951 l 316 951 l 316 372 l 435 372 l 435 951 l 535 951 l 583 856 l 702 856 l 702 971 l 49 971 z m 1310 971 l 1142 531 l 930 971 l 797 971 l 797 372 l 917 372 l 917 492 l 822 539 l 822 918 l 1080 367 l 1080 367 l 1106 367 l 1312 905 l 1312 372 l 1431 372 l 1431 971 z "},"−":{"ha":913,"x_min":0,"x_max":0,"o":"m 876 430 l 876 527 l 35 527 l 35 430 z "},"":{"ha":2235,"x_min":0,"x_max":0,"o":"m 1221 971 l 1169 820 l 1289 697 l 1291 695 l 1069 58 l 752 971 l 752 972 l 752 971 l 546 971 l 706 511 l 549 58 l 232 971 l 26 971 l 364 0 l 569 0 l 569 0 l 727 453 l 727 452 l 884 0 l 1089 0 l 1416 939 l 1577 939 l 1577 0 l 1771 0 l 1771 939 l 1933 939 l 2010 785 l 2204 785 l 2204 972 z "},"":{"ha":2118,"x_min":0,"x_max":0,"o":"m 1546 986 b 1045 485 1279 986 1045 843 b 1081 268 1045 401 1058 329 b 644 36 1073 257 904 36 b 278 477 322 36 278 325 b 567 949 278 809 423 949 l 706 947 l 780 790 l 988 786 l 988 973 l 567 981 b 69 477 302 981 69 836 b 566 -11 69 129 301 -11 b 1097 231 911 -11 1085 216 b 1546 -17 1180 58 1354 -17 b 2048 485 1814 -17 2048 127 b 1546 986 2048 843 1814 986 z m 1546 16 b 1255 485 1401 16 1255 144 b 1546 954 1255 825 1401 954 b 1837 485 1691 954 1837 826 b 1546 16 1837 144 1692 16 z "},"":{"ha":2118,"x_min":0,"x_max":0,"o":"m 1546 986 b 1045 485 1279 986 1045 843 b 1081 268 1045 401 1058 329 b 644 36 1073 257 904 36 b 278 477 322 36 278 325 b 567 949 278 809 423 949 l 706 947 l 780 790 l 988 786 l 988 973 l 567 981 b 69 477 302 981 69 836 b 566 -11 69 129 301 -11 b 1097 232 911 -11 1085 216 b 1546 -17 1180 58 1354 -17 b 1548 -17 1547 -17 1547 -17 l 1448 -67 l 1569 -194 l 1835 -194 l 1659 -7 b 2048 485 1876 29 2048 179 b 1546 986 2048 843 1814 986 z m 1546 16 b 1255 485 1401 16 1255 145 b 1546 954 1255 826 1401 954 b 1837 485 1691 954 1837 826 b 1546 16 1837 144 1692 16 z "},"":{"ha":1571,"x_min":0,"x_max":0,"o":"m 1014 1276 b 546 986 807 1276 620 1190 b 69 485 289 977 69 832 b 571 -17 69 127 303 -17 b 1038 274 778 -17 964 70 b 1515 775 1295 283 1515 428 b 1014 1276 1515 1133 1281 1276 z m 856 366 b 722 775 778 434 722 564 b 729 893 722 818 725 857 b 862 485 806 825 862 696 b 856 366 862 442 860 403 z m 571 16 b 280 485 425 16 280 144 b 535 951 280 797 402 931 b 512 775 520 899 512 841 b 843 296 512 496 654 348 b 571 16 800 96 685 16 z m 1050 309 b 1072 485 1064 361 1072 419 b 741 964 1072 764 930 912 b 1014 1244 785 1164 899 1244 b 1305 775 1159 1244 1305 1116 b 1050 309 1305 463 1182 329 z "},"":{"ha":2121,"x_min":0,"x_max":0,"o":"m 1548 986 b 1046 484 1280 986 1046 842 b 1082 267 1046 400 1059 329 b 645 36 1074 257 905 36 b 279 477 323 36 279 325 b 568 948 279 809 424 948 l 707 946 l 782 790 l 990 785 l 990 972 l 568 980 b 71 477 303 980 71 836 b 567 -12 71 128 302 -12 b 1098 231 912 -12 1087 215 b 1548 -17 1182 57 1356 -17 b 2049 484 1815 -17 2049 127 b 1548 986 2049 842 1815 986 z m 1548 15 b 1256 484 1402 15 1256 144 b 1548 953 1256 825 1402 953 b 1839 484 1693 953 1839 825 b 1548 15 1839 144 1693 15 z "},"":{"ha":2121,"x_min":0,"x_max":0,"o":"m 1548 987 b 1046 486 1280 987 1046 844 b 1082 269 1046 402 1059 330 b 645 37 1074 258 905 37 b 279 478 323 37 279 326 b 568 950 279 810 424 949 l 707 947 l 782 791 l 990 787 l 990 974 l 568 982 b 71 478 303 982 71 837 b 567 -10 71 130 302 -10 b 1098 232 912 -10 1087 217 b 1548 -16 1182 59 1356 -16 b 1549 -16 1548 -16 1549 -16 l 1449 -66 l 1570 -194 l 1837 -194 l 1660 -7 b 2049 486 1878 30 2049 179 b 1548 987 2049 844 1815 987 z m 1548 17 b 1256 486 1402 17 1256 145 b 1548 955 1256 826 1402 954 b 1839 486 1693 955 1839 826 b 1548 17 1839 145 1693 17 z "},"":{"ha":2236,"x_min":0,"x_max":0,"o":"m 1221 971 l 1169 820 l 1289 697 l 1291 695 l 1069 58 l 752 971 l 752 972 l 752 971 l 546 971 l 706 511 l 549 58 l 232 971 l 26 971 l 364 0 l 569 0 l 569 0 l 727 453 l 727 452 l 884 0 l 1089 0 l 1416 939 l 1577 939 l 1577 0 l 1771 0 l 1771 939 l 1933 939 l 2010 785 l 2204 785 l 2204 972 z "},"":{"ha":2501,"x_min":0,"x_max":0,"o":"m 2167 938 l 2244 785 l 2439 785 l 2439 971 l 1847 971 l 1694 890 l 1694 517 l 1693 517 l 1208 517 l 1208 970 l 29 971 l 29 785 l 223 785 l 300 938 l 462 938 l 462 0 l 656 0 l 656 938 l 1014 938 l 1014 0 l 1208 0 l 1208 485 l 1693 485 l 1694 483 l 1694 0 l 2439 0 l 2439 186 l 2244 186 l 2167 32 l 1888 32 l 1888 485 l 2277 485 l 2277 518 l 1888 518 l 1888 938 z "},"":{"ha":2496,"x_min":0,"x_max":0,"o":"m 2263 971 l 2210 820 l 2330 697 l 2332 695 l 2111 58 l 1794 971 l 1793 972 l 1793 971 l 1588 971 l 1748 511 l 1591 58 l 1274 971 l 1068 971 l 1227 513 l 1069 58 l 752 971 l 752 972 l 752 971 l 546 971 l 706 511 l 549 58 l 232 971 l 26 971 l 364 0 l 569 0 l 569 0 l 727 453 l 727 452 l 884 0 l 1089 0 l 1247 455 l 1405 0 l 1611 0 l 1611 0 l 1768 453 l 1768 452 l 1925 0 l 2131 0 l 2468 971 z "},"":{"ha":1740,"x_min":0,"x_max":0,"o":"m 696 972 l 696 972 l 621 876 l 695 721 l 564 553 l 277 972 l 42 972 l 42 971 l 390 464 l 25 1 l 273 0 l 348 96 l 275 252 l 413 430 l 708 1 l 943 1 l 588 518 l 915 936 l 921 940 l 1083 940 l 1083 1 l 1277 1 l 1277 940 l 1439 940 l 1516 786 l 1710 786 l 1710 972 z "},"":{"ha":1732,"x_min":0,"x_max":0,"o":"m 932 972 l 932 972 l 712 972 l 641 839 l 740 699 l 558 359 l 237 972 l 17 972 l 378 284 l 378 0 l 572 0 l 572 298 l 914 940 l 1075 940 l 1075 0 l 1270 0 l 1270 940 l 1431 940 l 1508 786 l 1703 786 l 1703 972 z "},"":{"ha":1474,"x_min":0,"x_max":0,"o":"m 1150 32 l 820 32 l 1430 971 l 82 971 l 82 785 l 276 785 l 353 938 l 647 938 l 38 0 l 1421 0 l 1421 186 l 1227 186 z m 290 32 l 875 932 l 883 938 l 1177 938 l 588 32 z "},"":{"ha":1328,"x_min":0,"x_max":0,"o":"m 1096 971 l 1041 822 l 1161 694 l 926 55 l 590 971 l 383 971 l 26 0 l 233 0 l 288 148 l 166 278 l 194 356 l 607 356 l 739 -1 l 946 -1 l 1303 971 z m 206 388 l 400 916 l 595 388 z "},"":{"ha":1744,"x_min":0,"x_max":0,"o":"m 1377 396 b 1661 680 1537 421 1661 508 b 1272 971 1661 888 1479 971 l 262 971 l 108 894 l 109 0 l 626 0 b 1015 259 833 0 1015 74 b 772 503 1015 397 910 474 b 990 728 898 534 990 604 b 825 939 990 836 924 903 l 1191 939 b 1452 680 1304 939 1452 878 b 1135 388 1452 416 1135 388 l 1448 0 l 1697 0 z m 805 259 b 529 32 805 83 642 32 l 303 32 l 303 486 l 530 486 b 805 259 643 486 805 435 z m 529 518 l 303 518 l 303 939 l 528 939 b 781 728 641 939 781 894 b 529 518 781 563 642 518 z "},"":{"ha":1857,"x_min":0,"x_max":0,"o":"m 1267 970 l 1128 595 b 911 166 1128 595 1032 305 b 644 32 846 92 755 32 b 278 473 322 32 278 321 b 567 945 278 805 423 945 l 706 943 l 780 786 l 988 782 l 988 969 l 567 977 b 69 473 302 977 69 832 b 566 -15 69 125 301 -15 b 930 129 713 -15 846 32 b 1069 355 1006 216 1033 282 l 1492 355 l 1624 -1 l 1830 -1 l 1474 970 l 1267 970 z m 1085 387 l 1084 387 b 1163 588 1137 500 1163 588 l 1284 916 l 1480 387 l 1085 387 z "},"":{"ha":2013,"x_min":0,"x_max":0,"o":"m 1045 473 b 1080 263 1045 392 1058 323 b 644 32 1065 243 898 32 b 278 473 322 32 278 321 b 567 945 278 805 423 945 l 706 943 l 780 786 l 988 782 l 988 969 l 567 977 b 69 473 302 977 69 832 b 566 -15 69 125 301 -15 b 1096 227 904 -15 1079 203 b 1541 -15 1179 57 1351 -15 b 1964 58 1716 -15 1846 14 l 1951 92 b 1619 32 1841 54 1756 32 b 1253 473 1297 32 1253 321 b 1542 945 1253 805 1398 945 l 1681 943 l 1755 786 l 1964 782 l 1964 969 l 1542 977 b 1045 473 1277 977 1045 832 z "},"":{"ha":2054,"x_min":0,"x_max":0,"o":"m 1045 473 b 1080 263 1045 392 1058 323 b 644 32 1065 243 898 32 b 278 473 322 32 278 321 b 567 945 278 805 423 945 l 706 943 l 780 786 l 988 782 l 988 969 l 567 977 b 69 473 302 977 69 832 b 566 -15 69 125 301 -15 b 1096 227 904 -15 1079 203 b 1541 -15 1179 57 1351 -15 b 1964 58 1716 -15 1846 14 l 1964 457 l 1533 457 l 1533 424 l 1768 424 l 1768 43 b 1619 32 1724 36 1676 32 b 1253 473 1297 32 1253 321 b 1542 945 1253 805 1398 945 l 1681 943 l 1755 786 l 1964 782 l 1964 969 l 1542 977 b 1045 473 1277 977 1045 832 z "},"":{"ha":1981,"x_min":0,"x_max":0,"o":"m 566 -15 b 1081 208 859 -15 1029 149 l 1081 -2 l 1275 -2 l 1275 291 l 1383 400 l 1705 -2 l 1954 -2 l 1520 540 l 1942 969 l 1668 969 l 1591 890 l 1647 728 l 1275 348 l 1275 969 l 1081 969 l 1081 264 b 644 32 1069 248 901 32 b 278 473 322 32 278 321 b 567 945 278 805 423 945 l 706 943 l 780 786 l 988 782 l 988 969 l 567 977 b 69 473 302 977 69 832 b 566 -15 69 125 301 -15 z "},"":{"ha":1883,"x_min":0,"x_max":0,"o":"m 570 969 b 69 473 305 968 69 832 b 566 -15 69 125 301 -15 b 988 58 741 -15 870 14 l 976 92 b 644 32 865 54 781 32 b 278 473 322 32 278 321 b 570 937 278 805 426 936 l 794 940 l 794 783 l 988 783 l 1065 936 l 1227 936 l 1227 -2 l 1421 -2 l 1421 936 l 1582 936 l 1659 783 l 1853 783 l 1853 969 z "},"":{"ha":1749,"x_min":0,"x_max":0,"o":"m 261 972 l 108 891 l 108 1 l 853 1 l 853 187 l 659 187 l 582 33 l 303 33 l 303 486 l 691 486 l 691 519 l 303 519 l 303 940 l 659 940 l 659 786 l 853 786 l 930 940 l 1092 940 l 1092 1 l 1286 1 l 1286 940 l 1448 940 l 1525 786 l 1719 786 l 1719 972 z "},"":{"ha":1749,"x_min":0,"x_max":0,"o":"m 261 972 l 108 891 l 108 1 l 303 1 l 303 486 l 691 486 l 691 519 l 303 519 l 303 940 l 659 940 l 659 786 l 853 786 l 930 940 l 1092 940 l 1092 1 l 1286 1 l 1286 940 l 1448 940 l 1525 786 l 1719 786 l 1719 972 z "},"":{"ha":1883,"x_min":0,"x_max":0,"o":"m 988 969 l 567 969 b 69 473 302 968 69 832 b 566 -15 69 125 301 -15 b 988 58 741 -15 870 14 l 988 457 l 557 457 l 557 424 l 793 424 l 793 43 b 644 32 749 36 701 32 b 278 473 322 32 278 321 b 567 936 278 805 423 936 l 794 936 l 794 782 l 988 782 l 988 783 l 1065 936 l 1227 936 l 1227 -2 l 1421 -2 l 1421 936 l 1583 936 l 1659 783 l 1853 783 l 1853 969 l 988 969 z "},"":{"ha":1536,"x_min":0,"x_max":0,"o":"m 1154 972 l 947 972 l 602 33 l 302 33 l 302 972 l 108 972 l 108 82 l 262 1 l 797 1 l 852 150 l 730 279 l 758 357 l 1171 357 l 1303 1 l 1510 1 z m 770 389 l 964 918 l 1160 389 z "},"":{"ha":1435,"x_min":0,"x_max":0,"o":"m 1210 186 l 1133 32 l 854 32 l 854 971 l 659 971 l 659 32 l 303 32 l 303 971 l 108 971 l 108 80 l 262 -1 l 1404 0 l 1404 186 z "},"":{"ha":958,"x_min":0,"x_max":0,"o":"m 582 32 l 303 32 l 303 971 l 108 971 l 108 80 l 262 0 l 853 0 l 853 186 l 659 186 z m 853 370 l 853 971 l 659 971 l 659 370 z "},"":{"ha":1990,"x_min":0,"x_max":0,"o":"m 1880 968 l 1686 968 l 1686 774 l 1839 697 l 1839 86 l 1215 968 l 975 968 l 975 86 l 351 968 l 111 968 l 111 -3 l 305 -3 l 305 191 l 152 268 l 152 911 l 800 -9 l 1016 29 l 1016 911 l 1665 -9 l 1880 29 z "},"":{"ha":2029,"x_min":0,"x_max":0,"o":"m 822 968 l 822 774 l 826 771 l 975 697 l 975 86 l 351 968 l 111 968 l 111 -3 l 305 -3 l 305 191 l 152 268 l 152 911 l 800 -9 l 1016 29 l 1016 936 l 1372 936 l 1372 -3 l 1566 -3 l 1566 936 l 1728 936 l 1805 782 l 1999 782 l 1999 968 z "},"":{"ha":1857,"x_min":0,"x_max":0,"o":"m 1548 971 l 1277 258 l 933 971 l 717 971 l 717 32 l 303 32 l 303 971 l 108 971 l 108 970 l 108 970 l 108 80 l 262 -1 l 912 -1 l 912 194 l 758 271 l 758 884 l 1175 -8 l 1175 -9 l 1218 -9 l 1551 864 l 1551 0 l 1745 0 l 1745 970 z "},"":{"ha":1653,"x_min":0,"x_max":0,"o":"m 1349 971 l 1349 776 l 1503 700 l 1503 96 l 948 971 l 717 971 l 717 32 l 718 32 l 718 32 l 303 32 l 303 971 l 108 971 l 108 80 l 262 -1 l 909 -1 l 912 -1 l 912 194 l 758 271 l 758 906 l 1333 -9 l 1543 32 l 1543 971 z "},"":{"ha":1688,"x_min":0,"x_max":0,"o":"m 1319 396 b 1602 679 1478 421 1602 508 b 1214 971 1602 888 1420 971 l 262 971 l 108 890 l 108 0 l 303 0 l 303 388 l 480 388 l 792 0 l 1042 0 l 722 396 b 1006 679 882 421 1006 508 b 818 938 1006 815 928 897 l 1133 938 b 1393 679 1245 938 1393 877 b 1076 388 1393 416 1076 388 l 1389 -1 l 1638 0 z m 536 420 l 303 420 l 303 938 l 536 938 b 796 679 649 938 796 878 b 536 420 796 481 649 420 z "},"":{"ha":1607,"x_min":0,"x_max":0,"o":"m 844 763 b 1088 940 837 944 1088 940 l 1229 940 l 1306 786 l 1500 786 l 1500 972 l 1023 972 b 642 689 1023 972 642 988 b 1331 209 642 341 1338 470 b 1088 33 1326 33 1088 33 l 930 33 l 853 187 l 659 187 l 659 33 l 303 33 l 303 972 l 108 972 l 108 82 l 262 1 l 1152 1 b 1541 280 1152 1 1540 -15 b 844 763 1541 608 853 511 z "},"":{"ha":1540,"x_min":0,"x_max":0,"o":"m 1512 972 l 1264 972 l 1189 876 l 1263 721 l 1133 553 l 845 972 l 610 972 l 610 971 l 958 464 l 619 33 l 303 33 l 303 972 l 108 972 l 108 82 l 262 1 l 841 0 l 916 96 l 843 252 l 982 430 l 1276 1 l 1512 1 l 1157 518 z "},"":{"ha":1554,"x_min":0,"x_max":0,"o":"m 1279 0 l 1528 0 l 1094 542 l 1516 971 l 1242 971 l 1165 892 l 1221 730 l 767 272 l 550 542 l 973 971 l 699 971 l 622 892 l 678 730 l 305 349 l 305 971 l 111 971 l 111 0 l 305 0 l 305 292 l 413 402 l 736 0 l 985 0 l 794 237 l 956 402 z "},"":{"ha":1788,"x_min":0,"x_max":0,"o":"m 698 972 l 621 893 l 677 729 l 523 575 l 523 575 l 509 560 l 394 445 l 395 443 l 304 350 l 304 972 l 110 972 l 110 1 l 304 1 l 304 294 l 412 403 l 735 1 l 984 1 l 549 543 l 939 940 l 1131 940 l 1131 1 l 1325 1 l 1325 940 l 1487 940 l 1564 786 l 1758 786 l 1758 972 z "},"":{"ha":1601,"x_min":0,"x_max":0,"o":"m 29 971 l 29 785 l 223 785 l 300 938 l 462 938 l 462 0 l 656 0 l 656 938 l 944 938 l 944 0 l 1138 0 l 1138 938 l 1300 938 l 1377 785 l 1571 785 l 1571 971 z "},"":{"ha":1757,"x_min":0,"x_max":0,"o":"m 1433 32 l 1104 32 l 1713 971 l 29 971 l 29 785 l 223 785 l 300 938 l 462 938 l 462 0 l 656 0 l 656 938 l 818 938 l 895 785 l 1090 785 l 1090 938 l 1461 938 l 851 0 l 1705 0 l 1705 186 l 1510 186 z "},"":{"ha":1772,"x_min":0,"x_max":0,"o":"m 738 971 l 683 822 l 803 694 l 568 55 l 232 971 l 25 971 l 381 0 l 588 0 l 933 938 l 1115 938 l 1115 0 l 1309 0 l 1309 938 l 1471 938 l 1548 785 l 1742 785 l 1742 971 z "},"":{"ha":2501,"x_min":0,"x_max":0,"o":"m 2167 938 l 2244 785 l 2439 785 l 2439 971 l 1847 971 l 1694 890 l 1694 517 l 1693 517 l 1208 517 l 1208 970 l 29 971 l 29 785 l 223 785 l 300 938 l 462 938 l 462 0 l 656 0 l 656 938 l 1014 938 l 1014 0 l 1208 0 l 1208 485 l 1693 485 l 1694 483 l 1694 0 l 2439 0 l 2439 186 l 2244 186 l 2167 32 l 1888 32 l 1888 485 l 2277 485 l 2277 518 l 1888 518 l 1888 938 z "},"":{"ha":2496,"x_min":0,"x_max":0,"o":"m 2263 971 l 2210 820 l 2330 697 l 2332 695 l 2111 58 l 1794 971 l 1793 972 l 1793 971 l 1588 971 l 1748 511 l 1591 58 l 1274 971 l 1068 971 l 1227 513 l 1069 58 l 752 971 l 752 972 l 752 971 l 546 971 l 706 511 l 549 58 l 232 971 l 26 971 l 364 0 l 569 0 l 569 0 l 727 453 l 727 452 l 884 0 l 1089 0 l 1247 455 l 1405 0 l 1611 0 l 1611 0 l 1768 453 l 1768 452 l 1925 0 l 2131 0 l 2468 971 z "},"":{"ha":1743,"x_min":0,"x_max":0,"o":"m 697 972 l 697 972 l 622 876 l 696 721 l 566 553 l 278 972 l 43 972 l 43 971 l 391 464 l 26 1 l 274 0 l 349 96 l 276 252 l 415 430 l 709 1 l 944 1 l 589 518 l 917 936 l 922 940 l 1084 940 l 1084 1 l 1278 1 l 1278 940 l 1440 940 l 1517 786 l 1711 786 l 1711 972 z "},"":{"ha":1735,"x_min":0,"x_max":0,"o":"m 933 972 l 933 972 l 713 972 l 642 839 l 742 699 l 559 359 l 238 972 l 18 972 l 379 284 l 379 0 l 573 0 l 573 298 l 916 940 l 1077 940 l 1077 0 l 1271 0 l 1271 940 l 1433 940 l 1510 786 l 1704 786 l 1704 972 z "},"":{"ha":1476,"x_min":0,"x_max":0,"o":"m 1151 32 l 821 32 l 1431 971 l 83 971 l 83 785 l 277 785 l 354 938 l 648 938 l 39 0 l 1422 0 l 1422 186 l 1228 186 z m 292 32 l 876 932 l 884 938 l 1178 938 l 590 32 z "},"":{"ha":1329,"x_min":0,"x_max":0,"o":"m 1097 971 l 1042 822 l 1162 694 l 927 55 l 591 971 l 384 971 l 28 0 l 235 0 l 289 148 l 167 278 l 195 356 l 609 356 l 741 -1 l 948 -1 l 1304 971 z m 207 388 l 401 916 l 597 388 z "},"":{"ha":1747,"x_min":0,"x_max":0,"o":"m 1379 396 b 1663 680 1539 421 1663 508 b 1274 971 1663 888 1481 971 l 264 971 l 110 894 l 111 0 l 628 0 b 1016 259 835 0 1016 74 b 773 503 1016 397 911 474 b 992 728 899 534 992 604 b 826 939 992 836 926 903 l 1193 939 b 1453 680 1305 939 1453 878 b 1136 388 1453 416 1136 388 l 1449 0 l 1699 0 z m 807 259 b 531 32 807 83 643 32 l 304 32 l 304 486 l 531 486 b 807 259 644 486 807 435 z m 531 518 l 304 518 l 304 939 l 530 939 b 782 728 642 939 782 894 b 531 518 782 563 643 518 z "},"":{"ha":1860,"x_min":0,"x_max":0,"o":"m 1269 970 l 1129 595 b 912 167 1129 595 1034 306 b 645 33 848 93 757 33 b 279 474 323 33 279 322 b 568 946 279 806 424 945 l 707 943 l 782 787 l 990 782 l 990 969 l 568 978 b 71 474 303 977 71 833 b 567 -15 71 125 302 -15 b 931 129 715 -15 847 33 b 1070 356 1007 217 1034 282 l 1493 356 l 1625 0 l 1832 0 l 1476 970 z m 1086 388 l 1086 388 b 1164 588 1138 500 1164 588 l 1286 916 l 1481 388 l 1086 388 z "},"":{"ha":2015,"x_min":0,"x_max":0,"o":"m 1046 474 b 1082 264 1046 393 1059 323 b 645 33 1066 244 899 33 b 279 474 323 33 279 322 b 568 946 279 806 424 945 l 707 943 l 782 787 l 990 782 l 990 969 l 568 978 b 71 474 303 977 71 833 b 567 -15 71 125 302 -15 b 1098 227 905 -15 1080 204 b 1543 -15 1180 58 1353 -15 b 1965 59 1717 -15 1847 15 l 1953 93 b 1621 33 1842 55 1757 33 b 1254 474 1298 33 1254 322 b 1543 946 1254 806 1400 945 l 1683 943 l 1757 787 l 1965 782 l 1965 969 l 1543 978 b 1046 474 1278 977 1046 833 z "},"":{"ha":2057,"x_min":0,"x_max":0,"o":"m 1046 474 b 1082 264 1046 393 1059 323 b 645 33 1066 244 899 33 b 279 474 323 33 279 322 b 568 946 279 806 424 945 l 707 943 l 782 787 l 990 782 l 990 969 l 568 978 b 71 474 303 977 71 833 b 567 -15 71 125 302 -15 b 1098 227 905 -15 1080 204 b 1543 -15 1180 58 1353 -15 b 1965 59 1717 -15 1847 15 l 1965 457 l 1534 457 l 1534 425 l 1770 425 l 1770 44 b 1621 33 1725 37 1678 33 b 1254 474 1298 33 1254 322 b 1543 946 1254 806 1400 945 l 1683 943 l 1757 787 l 1965 782 l 1965 969 l 1543 978 b 1046 474 1278 977 1046 833 z "},"":{"ha":1983,"x_min":0,"x_max":0,"o":"m 567 -15 b 1082 208 860 -15 1030 149 l 1082 -2 l 1276 -2 l 1276 291 l 1384 400 l 1707 -2 l 1956 -2 l 1521 540 l 1943 969 l 1670 969 l 1593 890 l 1648 728 l 1276 348 l 1276 969 l 1082 969 l 1082 264 b 646 32 1070 248 902 32 b 279 473 323 32 279 321 b 568 945 279 805 424 945 l 707 943 l 782 786 l 990 782 l 990 969 l 568 977 b 71 473 303 977 71 832 b 567 -15 71 125 302 -15 z "},"":{"ha":1885,"x_min":0,"x_max":0,"o":"m 570 969 b 69 474 305 969 69 833 b 566 -15 69 125 301 -15 b 988 59 741 -15 870 15 l 976 93 b 644 33 865 55 781 33 b 278 474 322 33 278 322 b 570 937 278 806 426 937 l 794 941 l 794 783 l 988 783 l 1065 937 l 1227 937 l 1227 -1 l 1421 -1 l 1421 937 l 1582 937 l 1659 783 l 1853 783 l 1853 969 z "},"":{"ha":1751,"x_min":0,"x_max":0,"o":"m 263 972 l 110 891 l 110 1 l 854 1 l 854 187 l 660 187 l 583 33 l 304 33 l 304 486 l 693 486 l 693 519 l 304 519 l 304 940 l 660 940 l 660 786 l 854 786 l 931 940 l 1093 940 l 1093 1 l 1287 1 l 1287 940 l 1449 940 l 1526 786 l 1721 786 l 1721 972 z "},"":{"ha":1751,"x_min":0,"x_max":0,"o":"m 263 972 l 110 891 l 110 1 l 304 1 l 304 486 l 693 486 l 693 519 l 304 519 l 304 940 l 660 940 l 660 786 l 855 786 l 931 940 l 1093 940 l 1093 1 l 1287 1 l 1287 940 l 1449 940 l 1526 786 l 1720 786 l 1720 972 z "},"":{"ha":1886,"x_min":0,"x_max":0,"o":"m 990 969 l 568 969 b 71 474 303 969 71 833 b 567 -15 71 125 302 -15 b 990 59 742 -15 872 15 l 990 457 l 559 457 l 559 425 l 795 425 l 795 44 b 645 33 750 37 702 33 b 279 474 323 33 279 322 b 568 937 279 806 424 937 l 795 937 l 795 783 l 990 782 l 990 784 l 1066 937 l 1228 937 l 1228 -1 l 1422 -1 l 1422 937 l 1584 937 l 1661 783 l 1855 783 l 1855 969 l 990 969 l 990 969 z "},"":{"ha":1539,"x_min":0,"x_max":0,"o":"m 1155 972 l 948 972 l 604 33 l 303 33 l 303 972 l 110 972 l 110 82 l 263 1 l 799 1 l 853 150 l 731 279 l 759 357 l 1173 357 l 1305 1 l 1512 1 z m 771 389 l 965 918 l 1161 389 z "},"":{"ha":1436,"x_min":0,"x_max":0,"o":"m 1211 186 l 1134 32 l 855 32 l 855 971 l 661 971 l 661 32 l 304 32 l 304 971 l 110 971 l 110 80 l 263 -1 l 1405 0 l 1405 186 z "},"":{"ha":961,"x_min":0,"x_max":0,"o":"m 583 32 l 304 32 l 304 971 l 110 971 l 110 80 l 263 0 l 854 0 l 854 186 l 660 186 z m 854 370 l 854 971 l 660 971 l 660 370 z "},"":{"ha":1992,"x_min":0,"x_max":0,"o":"m 1880 968 l 1686 968 l 1686 774 l 1839 697 l 1839 86 l 1215 968 l 975 968 l 975 86 l 351 968 l 111 968 l 111 -3 l 305 -3 l 305 191 l 152 268 l 152 911 l 800 -9 l 1016 29 l 1016 911 l 1665 -9 l 1880 29 z "},"":{"ha":2031,"x_min":0,"x_max":0,"o":"m 822 968 l 822 774 l 826 771 l 975 697 l 975 86 l 351 968 l 111 968 l 111 -3 l 305 -3 l 305 191 l 152 268 l 152 911 l 800 -9 l 1016 29 l 1016 936 l 1372 936 l 1372 -3 l 1566 -3 l 1566 936 l 1728 936 l 1805 782 l 1999 782 l 1999 968 z "},"":{"ha":1860,"x_min":0,"x_max":0,"o":"m 1549 971 l 1278 258 l 934 971 l 719 971 l 719 32 l 304 32 l 304 971 l 110 971 l 110 970 l 110 970 l 110 80 l 263 -1 l 913 -1 l 913 194 l 759 271 l 759 884 l 1177 -8 l 1176 -9 l 1220 -9 l 1552 864 l 1552 0 l 1746 0 l 1746 970 z "},"":{"ha":1656,"x_min":0,"x_max":0,"o":"m 1350 971 l 1350 776 l 1504 700 l 1504 96 l 949 971 l 719 971 l 719 32 l 719 32 l 719 32 l 304 32 l 304 971 l 110 971 l 110 80 l 263 -1 l 911 -1 l 914 -1 l 914 194 l 759 271 l 759 906 l 1334 -9 l 1544 32 l 1544 971 z "},"":{"ha":1690,"x_min":0,"x_max":0,"o":"m 1320 396 b 1604 679 1480 421 1604 508 b 1215 971 1604 888 1422 971 l 264 971 l 110 890 l 110 0 l 304 0 l 304 388 l 481 388 l 794 0 l 1043 0 l 724 396 b 1007 679 883 421 1007 508 b 819 938 1007 815 930 897 l 1134 938 b 1394 679 1246 938 1394 877 b 1077 388 1394 416 1077 388 l 1390 -1 l 1640 0 z m 537 420 l 304 420 l 304 938 l 537 938 b 798 679 650 938 798 878 b 537 420 798 481 650 420 z "},"":{"ha":1610,"x_min":0,"x_max":0,"o":"m 845 763 b 1089 940 839 944 1089 940 l 1231 940 l 1307 786 l 1502 786 l 1502 972 l 1024 972 b 644 689 1024 972 644 988 b 1333 209 644 341 1340 470 b 1089 33 1328 33 1089 33 l 931 33 l 854 187 l 660 187 l 660 33 l 304 33 l 304 972 l 110 972 l 110 82 l 263 1 l 1154 1 b 1542 280 1154 1 1542 -15 b 845 763 1542 608 854 511 z "},"":{"ha":1543,"x_min":0,"x_max":0,"o":"m 1513 972 l 1266 972 l 1191 876 l 1265 721 l 1134 553 l 847 972 l 612 972 l 612 971 l 960 464 l 621 33 l 304 33 l 304 972 l 110 972 l 110 82 l 263 1 l 843 0 l 918 96 l 844 252 l 983 430 l 1277 1 l 1513 1 l 1158 518 z "},"":{"ha":1557,"x_min":0,"x_max":0,"o":"m 1281 0 l 1530 0 l 1095 542 l 1517 971 l 1244 971 l 1167 892 l 1222 730 l 768 272 l 552 542 l 974 971 l 701 971 l 623 892 l 679 730 l 307 349 l 307 971 l 112 971 l 112 0 l 307 0 l 307 292 l 415 402 l 738 0 l 987 0 l 796 237 l 958 402 z "},"":{"ha":1790,"x_min":0,"x_max":0,"o":"m 699 972 l 622 893 l 679 729 l 525 575 l 524 575 l 510 560 l 395 445 l 396 443 l 305 350 l 305 972 l 111 972 l 111 1 l 305 1 l 305 294 l 413 403 l 736 1 l 985 1 l 550 543 l 941 940 l 1132 940 l 1132 1 l 1326 1 l 1326 940 l 1488 940 l 1565 786 l 1759 786 l 1759 972 z "},"":{"ha":1601,"x_min":0,"x_max":0,"o":"m 29 971 l 29 785 l 223 785 l 300 938 l 462 938 l 462 0 l 656 0 l 656 938 l 944 938 l 944 0 l 1138 0 l 1138 938 l 1300 938 l 1377 785 l 1571 785 l 1571 971 z "},"":{"ha":1758,"x_min":0,"x_max":0,"o":"m 1433 32 l 1104 32 l 1713 971 l 29 971 l 29 785 l 223 785 l 300 938 l 462 938 l 462 0 l 656 0 l 656 938 l 818 938 l 895 785 l 1090 785 l 1090 938 l 1461 938 l 851 0 l 1705 0 l 1705 186 l 1510 186 z "},"":{"ha":1772,"x_min":0,"x_max":0,"o":"m 738 971 l 683 822 l 803 694 l 568 55 l 232 971 l 25 971 l 381 0 l 588 0 l 933 938 l 1115 938 l 1115 0 l 1309 0 l 1309 938 l 1471 938 l 1548 785 l 1742 785 l 1742 971 z "},"":{"ha":1574,"x_min":0,"x_max":0,"o":"m 1015 1276 b 548 985 808 1276 622 1189 b 71 484 291 976 71 831 b 572 -17 71 127 305 -17 b 1040 274 779 -17 966 69 b 1516 774 1297 282 1516 428 b 1015 1276 1516 1132 1282 1276 z m 857 366 b 724 774 780 434 724 563 b 730 893 724 817 726 856 b 863 484 807 825 863 695 b 857 366 864 441 861 402 z m 572 15 b 281 484 427 15 281 144 b 536 950 281 796 404 930 b 513 774 522 898 513 840 b 845 295 513 496 656 347 b 572 15 801 95 687 15 z m 1051 308 b 1074 484 1066 360 1074 418 b 743 963 1074 763 932 911 b 1015 1243 786 1163 901 1243 b 1306 774 1160 1243 1306 1115 b 1051 308 1306 462 1184 329 z "},"":{"ha":1814,"x_min":0,"x_max":0,"o":"m 1011 973 l 440 973 b 60 690 440 973 60 989 b 748 210 60 342 755 471 b 507 16 748 14 507 16 b 102 85 507 16 273 1 l 89 55 b 507 -17 251 -8 373 -17 b 958 281 507 -17 958 -17 b 261 764 958 608 271 511 b 505 940 255 945 505 940 l 723 940 l 723 787 l 918 787 l 994 940 l 1157 940 l 1157 1 l 1351 1 l 1351 940 l 1513 940 l 1589 787 l 1784 787 l 1784 973 z "},"":{"ha":2546,"x_min":0,"x_max":0,"o":"m 1989 1276 b 1522 985 1782 1276 1596 1190 b 1045 485 1264 977 1045 832 b 1081 268 1045 401 1058 329 b 644 36 1073 257 904 36 b 278 477 322 36 278 325 b 567 949 278 809 423 949 l 706 947 l 780 790 l 988 786 l 988 973 l 567 981 b 69 477 302 981 69 836 b 566 -11 69 129 301 -11 b 1097 231 911 -11 1085 216 b 1546 -17 1180 58 1354 -17 b 2013 274 1753 -17 1939 70 b 2490 775 2271 283 2490 428 b 1989 1276 2490 1133 2256 1276 z m 1831 366 b 1697 775 1753 434 1697 564 b 1704 893 1697 818 1700 857 b 1837 485 1781 825 1837 696 b 1831 366 1837 442 1835 403 z m 1546 16 b 1255 485 1401 16 1255 144 b 1510 951 1255 797 1377 930 b 1487 775 1495 899 1487 841 b 1819 296 1487 496 1629 348 b 1546 16 1775 96 1661 16 z m 2025 309 b 2048 485 2040 361 2048 419 b 1716 964 2048 764 1906 912 b 1989 1244 1760 1164 1874 1244 b 2280 775 2134 1244 2280 1116 b 2025 309 2280 463 2158 329 z "},"":{"ha":1399,"x_min":0,"x_max":0,"o":"m 1353 572 b 653 1057 1353 901 653 804 b 898 1235 653 1221 837 1235 b 1030 1233 973 1235 1030 1233 l 1105 1076 l 1313 1072 l 1313 1259 b 898 1267 1313 1259 1002 1267 b 451 983 728 1267 451 1246 b 451 976 451 980 451 978 b 58 693 282 970 58 930 b 750 211 58 343 750 473 b 510 17 750 15 510 17 b 105 87 510 17 276 3 l 92 57 b 510 -15 254 -7 376 -15 b 960 278 510 -15 956 -15 b 1353 572 1082 290 1353 341 z m 958 313 b 261 767 916 605 261 522 b 454 942 261 897 376 933 b 1143 501 507 643 1143 752 b 958 313 1143 367 1030 326 z "},"":{"ha":1401,"x_min":0,"x_max":0,"o":"m 1355 572 b 654 1057 1355 901 654 803 b 899 1235 654 1220 838 1235 b 1031 1232 974 1235 1031 1232 l 1106 1076 l 1314 1071 l 1314 1258 b 899 1267 1314 1258 1003 1267 b 452 982 729 1267 452 1246 b 452 976 452 980 452 978 b 60 692 284 970 60 929 b 752 210 60 342 752 472 b 511 17 752 15 511 17 b 106 86 511 17 277 2 l 94 56 b 511 -16 255 -8 378 -16 b 962 278 511 -16 958 -16 b 1355 572 1084 289 1355 341 z m 960 312 b 262 767 917 604 262 521 b 456 941 262 896 378 932 b 1144 501 508 643 1144 752 b 960 312 1144 366 1031 325 z "},"":{"ha":2549,"x_min":0,"x_max":0,"o":"m 1990 1276 b 1523 985 1783 1276 1597 1189 b 1046 484 1266 976 1046 831 b 1082 268 1046 400 1059 329 b 645 36 1074 257 905 36 b 279 477 323 36 279 325 b 568 948 279 809 424 948 l 707 946 l 782 790 l 990 785 l 990 972 l 568 980 b 71 477 303 980 71 836 b 567 -12 71 128 302 -12 b 1098 231 912 -12 1087 215 b 1548 -17 1182 57 1356 -17 b 2015 274 1755 -17 1941 69 b 2492 774 2272 282 2492 428 b 1990 1276 2492 1132 2258 1276 z m 1832 366 b 1699 774 1755 434 1699 563 b 1705 893 1699 817 1701 856 b 1839 484 1783 825 1839 695 b 1832 366 1839 441 1836 402 z m 1547 15 b 1256 484 1402 15 1256 144 b 1511 950 1256 796 1379 930 b 1489 774 1497 898 1489 840 b 1820 295 1489 496 1631 347 b 1547 15 1776 95 1662 15 z m 2026 308 b 2049 484 2041 360 2049 418 b 1718 963 2049 763 1907 911 b 1990 1243 1761 1163 1876 1243 b 2281 774 2135 1243 2281 1115 b 2026 308 2281 462 2159 329 z "},"":{"ha":2067,"x_min":0,"x_max":0,"o":"m 1275 516 l 1275 969 l 1081 968 l 1081 264 b 644 32 1069 248 901 32 b 278 473 322 32 278 321 b 567 945 278 805 423 945 l 706 943 l 780 786 l 988 782 l 988 969 l 567 977 b 69 473 302 977 69 832 b 566 -15 69 125 301 -15 b 1081 208 859 -15 1029 149 l 1081 -2 l 1275 -2 l 1275 483 l 1760 483 l 1760 -2 l 1954 -2 l 1954 968 l 1760 968 l 1760 516 z "},"":{"ha":2069,"x_min":0,"x_max":0,"o":"m 1276 516 l 1276 969 l 1082 968 l 1082 264 b 645 32 1070 248 902 32 b 279 473 323 32 279 321 b 568 945 279 805 424 945 l 707 943 l 782 786 l 990 782 l 990 969 l 568 977 b 71 473 303 977 71 832 b 567 -15 71 125 302 -15 b 1082 208 860 -15 1030 149 l 1082 -2 l 1276 -2 l 1276 483 l 1762 483 l 1762 -2 l 1956 -2 l 1956 968 l 1762 968 l 1762 516 z "},"ﬆ":{"ha":1817,"x_min":0,"x_max":0,"o":"m 1012 973 l 441 973 b 61 690 441 973 61 989 b 749 210 61 342 756 471 b 508 16 749 14 508 16 b 103 85 508 16 274 1 l 90 55 b 508 -17 252 -8 375 -17 b 960 281 508 -17 960 -17 b 262 764 960 608 272 511 b 506 940 256 945 506 940 l 725 940 l 725 787 l 919 787 l 996 940 l 1158 940 l 1158 1 l 1352 1 l 1352 940 l 1514 940 l 1591 787 l 1785 787 l 1785 973 z "}}}
